<svg xmlns="http://www.w3.org/2000/svg" width="116" height="116" viewBox="0 0 116 116">
  <defs>
    <style>
      .cls-1 {
        fill: #e9380e;
        fill-rule: evenodd;
      }
    </style>
  </defs>
  <path class="cls-1" d="M92.706,34.832A3.321,3.321,0,0,0,89.355,33a3.357,3.357,0,0,0-1.863.834,0.819,0.819,0,0,0-.174.036C82.129,35.593,77.2,39.4,72.356,43.184c-5.067,3.954-22.367,8.473-25.179,9.3-13.444,3.947-24.353,13.935-26.147,15.64a0.135,0.135,0,0,0,.1.234l3.678-.161a0.136,0.136,0,0,1,.129.078l0.7,1.489a0.137,0.137,0,0,0,.241.011l0.923-1.523a0.137,0.137,0,0,1,.235,0l0.581,0.978a0.137,0.137,0,0,0,.224.016l1.4-1.684a0.138,0.138,0,0,1,.19-0.022l1.631,1.257a0.138,0.138,0,0,0,.215-0.07l0.53-1.755a0.138,0.138,0,0,1,.221-0.065l1.193,1.026a0.138,0.138,0,0,0,.2-0.028l1.166-1.719a0.138,0.138,0,0,1,.2-0.034L35.9,66.979a0.138,0.138,0,0,0,.193-0.028l1.064-1.43a0.138,0.138,0,0,1,.184-0.035l1.388,0.867a0.138,0.138,0,0,0,.2-0.062L39.6,64.733a0.138,0.138,0,0,1,.188-0.068l1.825,0.919A0.136,0.136,0,0,0,41.8,65.53c2.138-3.645,11.9-10.3,16.087-11.2A71.1,71.1,0,0,0,71.2,49.682l2.262-.741C68.376,54.334,53.54,61.105,49.73,63.6c-3.506,2.292-15.943,16.98-17.905,19.31a0.136,0.136,0,0,0,.137.219l3.526-.82a0.137,0.137,0,0,1,.152.069l0.818,1.541a0.137,0.137,0,0,0,.245-0.006l0.833-1.738a0.138,0.138,0,0,1,.219-0.041l0.7,0.664a0.138,0.138,0,0,0,.218-0.041l0.9-1.868a0.138,0.138,0,0,1,.174-0.069l2.249,0.875a0.138,0.138,0,0,0,.187-0.112l0.206-1.791a0.138,0.138,0,0,1,.21-0.1l1.372,0.866a0.138,0.138,0,0,0,.2-0.064l0.8-1.937a0.138,0.138,0,0,1,.177-0.076L46.1,78.84a0.138,0.138,0,0,0,.18-0.085l0.587-1.749a0.138,0.138,0,0,1,.2-0.078l1.816,0.977a0.138,0.138,0,0,0,.194-0.073l0.674-1.807a0.138,0.138,0,0,1,.161-0.086l1.611,0.376A0.135,0.135,0,0,0,51.68,76.2c0.782-5.225,8.513-12.51,16.27-16.661,7.83-4.19,7.885-5.355,11.535-9.227,2.977-3.159,8.3-8.739,10.166-10.69a3.336,3.336,0,0,0,1.08-.164c0.026-.009.051-0.02,0.077-0.029l-0.041.144-0.3,1.044-0.585,2.087-1.162,4.174-2.315,8.349-4.616,16.7,5.142-16.551,2.578-8.273,2.326-7.4c0.025-.006.051-0.008,0.076-0.017a1.006,1.006,0,0,0,.648-1.264,0.984,0.984,0,0,0-.124-0.245A3.3,3.3,0,0,0,92.706,34.832Zm-0.685,3a1,1,0,0,0-1.4,1.087c-0.019.007-.037,0.015-0.057,0.022a2.833,2.833,0,0,1-.446.1,0.8,0.8,0,0,0-.011-0.606l-1.793-4.126a0.787,0.787,0,0,0-.2-0.274,2.788,2.788,0,0,1,4.246,1.4A2.766,2.766,0,0,1,92.021,37.832Z"/>
</svg>
