<svg xmlns="http://www.w3.org/2000/svg" width="116" height="116" style=""><rect id="backgroundrect" width="100%" height="100%" x="0" y="0" fill="none" stroke="none"/>
  <defs>
    <style>
      .cls-1 {
        fill: #e9380e;
        fill-rule: evenodd;
      }
    </style>
  </defs>
  
<g class="currentLayer" style=""><title>Layer 1</title><rect fill="#ffffff" stroke-dashoffset="" fill-rule="nonzero" id="svg_1" x="0" y="0" width="117" height="116" style="color: rgb(0, 0, 0);"/><path class="cls-1 selected" d="M93.69363656616211,34.34658358764648 A3.321,3.321 0 0 0 90.34263656616211,32.514583587646484 a3.357,3.357 0 0 0 -1.863,0.8340000000000004 a0.8190000000000004,0.8190000000000004 0 0 0 -0.17400000000000004,0.03600000000000001 C83.11663656616211,35.10758358764649 78.18763656616211,38.91458358764649 73.3436365661621,42.69858358764648 c-5.067,3.954 -22.367,8.473 -25.179,9.3 c-13.444,3.947 -24.353,13.935 -26.147,15.64 a0.135,0.135 0 0 0 0.1,0.234 l3.678,-0.16100000000000014 a0.136,0.136 0 0 1 0.129,0.07800000000000006 l0.7000000000000004,1.489 a0.137,0.137 0 0 0 0.2410000000000001,0.011000000000000012 l0.923,-1.5230000000000001 a0.137,0.137 0 0 1 0.23500000000000001,0 l0.5810000000000004,0.978 a0.137,0.137 0 0 0 0.22400000000000014,0.016000000000000014 l1.4,-1.6840000000000006 a0.138,0.138 0 0 1 0.1900000000000001,-0.022000000000000026 l1.6310000000000002,1.2570000000000001 a0.138,0.138 0 0 0 0.2150000000000001,-0.07 l0.53,-1.7550000000000003 a0.138,0.138 0 0 1 0.2210000000000001,-0.06500000000000006 l1.193,1.026 a0.138,0.138 0 0 0 0.2,-0.028000000000000014 l1.166,-1.719 a0.138,0.138 0 0 1 0.2,-0.03400000000000003 L36.887636566162115,66.49358358764648 a0.138,0.138 0 0 0 0.19300000000000014,-0.028000000000000014 l1.064,-1.4300000000000002 a0.138,0.138 0 0 1 0.1840000000000001,-0.035 l1.3880000000000001,0.8670000000000004 a0.138,0.138 0 0 0 0.2,-0.06200000000000005 L40.587636566162104,64.24758358764649 a0.138,0.138 0 0 1 0.1880000000000001,-0.06800000000000007 l1.8250000000000002,0.919 A0.136,0.136 0 0 0 42.78763656616211,65.04458358764649 c2.138,-3.645 11.9,-10.3 16.087,-11.2 A71.1,71.1 0 0 0 72.18763656616211,49.19658358764649 l2.262,-0.7410000000000004 C69.36363656616211,53.84858358764649 54.5276365661621,60.619583587646474 50.7176365661621,63.11458358764648 c-3.5060000000000002,2.292 -15.943,16.98 -17.905,19.31 a0.136,0.136 0 0 0 0.137,0.2190000000000001 l3.526,-0.8200000000000004 a0.137,0.137 0 0 1 0.1520000000000001,0.06900000000000008 l0.8180000000000004,1.541 a0.137,0.137 0 0 0 0.2450000000000001,-0.006000000000000008 l0.8330000000000004,-1.738 a0.138,0.138 0 0 1 0.2190000000000001,-0.04100000000000003 l0.7000000000000004,0.6640000000000007 a0.138,0.138 0 0 0 0.2180000000000001,-0.04100000000000003 l0.9,-1.868 a0.138,0.138 0 0 1 0.17400000000000004,-0.06900000000000008 l2.249,0.8750000000000004 a0.138,0.138 0 0 0 0.1870000000000001,-0.11200000000000006 l0.20600000000000004,-1.791 a0.138,0.138 0 0 1 0.2100000000000001,-0.1 l1.372,0.8660000000000004 a0.138,0.138 0 0 0 0.2,-0.06400000000000006 l0.8,-1.937 a0.138,0.138 0 0 1 0.1770000000000001,-0.07600000000000005 L47.087636566162104,78.35458358764649 a0.138,0.138 0 0 0 0.1800000000000001,-0.08500000000000008 l0.5870000000000004,-1.749 a0.138,0.138 0 0 1 0.2,-0.07800000000000006 l1.816,0.977 a0.138,0.138 0 0 0 0.19400000000000014,-0.07300000000000002 l0.6740000000000007,-1.807 a0.138,0.138 0 0 1 0.16100000000000014,-0.08600000000000008 l1.6110000000000002,0.3760000000000002 A0.135,0.135 0 0 0 52.667636566162116,75.71458358764649 c0.782,-5.225 8.513,-12.51 16.27,-16.661 c7.83,-4.19 7.885,-5.355 11.535,-9.227 c2.977,-3.159 8.3,-8.739 10.166,-10.69 a3.3360000000000003,3.3360000000000003 0 0 0 1.08,-0.16400000000000015 c0.026000000000000027,-0.009000000000000011 0.05100000000000004,-0.020000000000000014 0.07700000000000005,-0.02900000000000002 l-0.04100000000000003,0.14400000000000004 l-0.3000000000000002,1.044 l-0.5850000000000004,2.087 l-1.162,4.174 l-2.315,8.349 l-4.616,16.7 l5.142,-16.551 l2.5780000000000003,-8.273 l2.326,-7.4 c0.02500000000000002,-0.006000000000000008 0.05100000000000004,-0.008000000000000007 0.07600000000000005,-0.017000000000000015 a1.006,1.006 0 0 0 0.6480000000000006,-1.264 a0.984,0.984 0 0 0 -0.12400000000000005,-0.2450000000000001 A3.3,3.3 0 0 0 93.69363656616211,34.34658358764648 zm-0.6850000000000007,3 a1,1 0 0 0 -1.4,1.087 c-0.019000000000000013,0.007000000000000008 -0.03700000000000001,0.015000000000000012 -0.05700000000000003,0.022000000000000026 a2.833,2.833 0 0 1 -0.4460000000000003,0.1 a0.8,0.8 0 0 0 -0.011000000000000012,-0.6060000000000004 l-1.7930000000000001,-4.126 a0.787,0.787 0 0 0 -0.2,-0.274 a2.7880000000000003,2.7880000000000003 0 0 1 4.246,1.4 A2.766,2.766 0 0 1 93.00863656616211,37.34658358764648 z" /></g></svg>