<svg xmlns="http://www.w3.org/2000/svg" width="116" height="116" viewBox="0 0 116 116">
  <defs>
    <style>
      .cls-1 {
        fill: #e9380e;
        fill-rule: evenodd;
      }
    </style>
  </defs>
  <path class="cls-1" d="M49.889,29.371a0.762,0.762,0,0,1,.226.754c0,0.105.009,0.422,0.02,0.88,0,0.144.007,0.3,0.011,0.47,2.514,0.3,7.092.429,7.092,0.429,2.64,0,4.618.253,7.039-.3,0.007-1.281-.04-2.1.419-2.37A9.417,9.417,0,0,0,67.179,26.9a6.043,6.043,0,0,0-.078-2.289c0-.33-4.418-0.6-9.869-0.6s-9.869.268-9.869,0.6v2.15l2.489,2.568A0.263,0.263,0,1,0,49.889,29.371ZM68.8,63.326h0a13.294,13.294,0,0,1-5.584-8.474,53.164,53.164,0,0,1-.611-12.227,3.365,3.365,0,0,1,.264-1.526,3.176,3.176,0,0,0,.873-1.851c0.009-.357.127-1.677,0.248-3.119a58.4,58.4,0,0,1-6.786.361c-1.885,0-5.18-.358-6.9-0.561a23.637,23.637,0,0,0,.317,3.3c0.371,1.448.269,1.381,0.9,1.971a1.735,1.735,0,0,1,.175.925c0.044,0.8.425,7.8-.841,13.171-0.809,3.434-3.454,6.246-5.259,7.83C40.4,65.6,37,69.726,37,74.392c0,4.7,3.446,8.839,8.7,11.309,1.685,2.512,6.135,4.308,11.36,4.308,5.28,0,9.769-1.834,11.412-4.388C73.628,83.142,77,79.037,77,74.392,77,69.848,73.772,65.82,68.8,63.326Z"/>
</svg>
