<svg xmlns="http://www.w3.org/2000/svg" width="116" height="116"><rect id="backgroundrect" width="100%" height="100%" x="0" y="0" fill="none" stroke="none"/>
  <defs>
    <style>
      .cls-1 {
        fill: #e9380e;
        fill-rule: evenodd;
      }
    </style>
  </defs>
  
<g class="currentLayer" style=""><title>Layer 1</title><rect fill="#ffffff" stroke-dashoffset="" fill-rule="nonzero" id="svg_8" x="0" y="0" width="118" height="115" style="color: rgb(0, 0, 0);"/><path class="cls-1" d="M50.88900000000001,30.36099977111816 a0.7620000000000005,0.7620000000000005 0 0 1 0.22600000000000015,0.7540000000000004 c0,0.10500000000000002 0.009000000000000011,0.4220000000000002 0.020000000000000014,0.8800000000000004 c0,0.14400000000000004 0.007000000000000008,0.3000000000000002 0.011000000000000012,0.4700000000000002 c2.5140000000000002,0.3000000000000002 7.092,0.4290000000000002 7.092,0.4290000000000002 c2.64,0 4.618,0.253 7.039,-0.3000000000000002 c0.007000000000000008,-1.2810000000000001 -0.04000000000000003,-2.1 0.4190000000000002,-2.37 A9.417,9.417 0 0 0 68.179,27.88999977111817 a6.043,6.043 0 0 0 -0.07800000000000006,-2.289 c0,-0.3300000000000003 -4.418,-0.6000000000000004 -9.869,-0.6000000000000004 s-9.869,0.268 -9.869,0.6000000000000004 v2.15 l2.489,2.568 A0.263,0.263 0 1 0 50.88900000000001,30.36099977111816 zM69.8,64.31599977111816 h0 a13.294,13.294 0 0 1 -5.584,-8.474 a53.164,53.164 0 0 1 -0.6110000000000004,-12.227 a3.365,3.365 0 0 1 0.264,-1.526 a3.176,3.176 0 0 0 0.8730000000000004,-1.851 c0.009000000000000011,-0.3570000000000002 0.127,-1.677 0.2480000000000001,-3.119 a58.4,58.4 0 0 1 -6.786,0.3610000000000002 c-1.8850000000000002,0 -5.18,-0.3580000000000002 -6.9,-0.561 a23.637,23.637 0 0 0 0.3170000000000002,3.3 c0.3710000000000002,1.448 0.269,1.381 0.9,1.971 a1.735,1.735 0 0 1 0.17500000000000004,0.925 c0.04400000000000004,0.8 0.4250000000000002,7.8 -0.8410000000000004,13.171 c-0.809,3.434 -3.454,6.246 -5.259,7.83 C41.400000000000006,66.58999977111816 38,70.71599977111816 38,75.38199977111816 c0,4.7 3.446,8.839 8.7,11.309 c1.685,2.512 6.135,4.308 11.36,4.308 c5.28,0 9.769,-1.834 11.412,-4.388 C74.628,84.13199977111816 78,80.02699977111817 78,75.38199977111816 C78,70.83799977111816 74.772,66.80999977111816 69.8,64.31599977111816 z" /></g></svg>