<svg xmlns="http://www.w3.org/2000/svg" width="116" height="116" viewBox="0 0 116 116">
  <defs>
    <style>
      .cls-1 {
        fill: #e9380e;
        fill-rule: evenodd;
      }
    </style>
  </defs>
  <path class="cls-1" d="M54.553,67.108l-16.242,2.14L30.552,65.07,47,62.93ZM38.828,70.674l16.863-2.242v16.71L38.828,87.894V70.674Zm-1.345-.1V87.486L29,82.9l0.414-16.812ZM60.23,67.037L76.61,69.2l7.825-4.213L67.847,62.824Zm15.858,3.6L59.083,68.373V85.225L76.089,88V70.634Zm1.356-.1V87.589L86,82.965,85.583,66.01ZM48.139,61.3c0.246-.405.483-0.789,0.7-1.172s0.429-.757.61-1.127a8.141,8.141,0,0,0,.449-1.083,3.416,3.416,0,0,0,.18-0.959,1.425,1.425,0,0,0-.135-0.672,1.893,1.893,0,0,0-.378-0.5L49.5,55.722c-0.022-.022-0.05-0.043-0.074-0.065s-0.051-.044-0.078-0.066l-0.1-.078q-0.125-.1-0.246-0.206L48.758,55.1c-0.166-.14-0.331-0.284-0.5-0.429s-0.334-.3-0.5-0.449-0.334-.313-0.5-0.477c-0.083-.081-0.166-0.166-0.248-0.252s-0.166-.169-0.248-0.261a10.369,10.369,0,0,1-.945-1.174c-0.073-.11-0.145-0.223-0.217-0.335s-0.136-.237-0.2-0.355-0.127-.249-0.186-0.375-0.11-.264-0.163-0.4-0.091-.277-0.134-0.415-0.07-.288-0.1-0.431-0.042-.3-0.061-0.443-0.014-.3-0.018-0.447,0.014-.3.026-0.443,0.044-.289.068-0.431,0.072-.277.108-0.413,0.094-.262.142-0.391a5.48,5.48,0,0,1,.807-1.335,6.694,6.694,0,0,1,.5-0.539c0.089-.083.174-0.169,0.267-0.246s0.186-.152.279-0.227,0.188-.145.288-0.212l0.295-.2c0.2-.124.409-0.241,0.624-0.347-0.067.231-.15,0.444-0.223,0.66l-0.108.32c-0.018.053-.036,0.105-0.055,0.157s-0.032.106-.049,0.158l-0.1.31c-0.032.1-.058,0.206-0.088,0.307-0.063.2-.1,0.4-0.151,0.6a5.654,5.654,0,0,0-.126,1.105,2.921,2.921,0,0,0,.14.916,3.285,3.285,0,0,0,.385.772c0.046,0.063.084,0.126,0.132,0.189s0.093,0.128.145,0.192l0.16,0.193,0.171,0.2c0.476,0.523,1.072,1.063,1.691,1.637l0.473,0.438c0.157,0.15.319,0.3,0.478,0.454s0.321,0.311.479,0.474L51.637,53.3c0.052,0.054.1,0.108,0.154,0.167,0.1,0.113.2,0.238,0.292,0.364l0.136,0.2c0.044,0.067.087,0.138,0.128,0.207a4.626,4.626,0,0,1,.224.445,3.954,3.954,0,0,1,.285.979,3.77,3.77,0,0,1,.018,1,4.01,4.01,0,0,1-.218.914,4.821,4.821,0,0,1-.844,1.442,6.519,6.519,0,0,1-1.1,1.035,7.744,7.744,0,0,1-1.232.752A6.386,6.386,0,0,1,48.139,61.3ZM56.369,29c-0.338.27-.662,0.545-0.973,0.829s-0.612.574-.9,0.87a11.342,11.342,0,0,0-1.48,1.873,5.551,5.551,0,0,0-.79,1.978,3.7,3.7,0,0,0,.166,1.865c0.024,0.074.057,0.148,0.084,0.222s0.062,0.147.1,0.22,0.069,0.146.11,0.218l0.058,0.108,0.066,0.112a7.845,7.845,0,0,0,.591.872,13.8,13.8,0,0,0,1.53,1.63c1.143,1.057,2.473,2.067,3.781,3.259a19.172,19.172,0,0,1,1.9,1.972,12.308,12.308,0,0,1,.848,1.162,10.043,10.043,0,0,1,.708,1.3,8.833,8.833,0,0,1,.761,2.883,9.152,9.152,0,0,1,.007,1.465c-0.009.12-.018,0.241-0.033,0.359s-0.025.238-.046,0.355-0.036.238-.058,0.348-0.041.222-.064,0.333a13.982,13.982,0,0,1-.8,2.6A11.363,11.363,0,0,1,60.6,58.206a9.391,9.391,0,0,1-1.9,1.92,7.831,7.831,0,0,1-1.131.709c-0.2.1-.4,0.193-0.6,0.271a4.056,4.056,0,0,1-.627.193,7.256,7.256,0,0,0,.929-0.856,9.669,9.669,0,0,0,.775-0.952,10.583,10.583,0,0,0,.638-1.017,11.439,11.439,0,0,0,.509-1.065,13.505,13.505,0,0,0,.957-4.517c0.006-.1.008-0.193,0.012-0.289s0-.184,0-0.276,0-.181,0-0.271-0.007-.179-0.012-0.268A7.355,7.355,0,0,0,60,50.752a6.77,6.77,0,0,0-.7-1.9,8.74,8.74,0,0,0-.559-0.878c-0.209-.286-0.434-0.569-0.679-0.845A21.252,21.252,0,0,0,56.42,45.5c-1.184-1.08-2.52-2.155-3.771-3.476-0.312-.331-0.618-0.678-0.909-1.046a11.957,11.957,0,0,1-.823-1.169,9.576,9.576,0,0,1-.673-1.3l-0.071-.172-0.067-.18c-0.046-.119-0.084-0.243-0.123-0.365s-0.071-.25-0.1-0.375-0.059-.254-0.08-0.384l-0.032-.194c-0.01-.065-0.017-0.131-0.025-0.2-0.018-.13-0.025-0.263-0.033-0.395a5.921,5.921,0,0,1,.018-0.793,5.446,5.446,0,0,1,.128-0.777c0.028-.127.066-0.252,0.1-0.376s0.081-.245.129-0.364,0.1-.236.148-0.351,0.11-.227.171-0.336a6,6,0,0,1,.389-0.628,7.38,7.38,0,0,1,.929-1.081,9.885,9.885,0,0,1,2.2-1.578,11.546,11.546,0,0,1,1.2-.557A9.1,9.1,0,0,1,56.369,29Zm6.977,17.22,0.534-1.245c0.171-.4.332-0.8,0.479-1.187A11.4,11.4,0,0,0,65,41.566,4.67,4.67,0,0,0,65.05,40.6,3.085,3.085,0,0,0,65,40.189c-0.013-.063-0.029-0.132-0.045-0.195s-0.036-.124-0.057-0.183a2.181,2.181,0,0,0-.147-0.333,2.342,2.342,0,0,0-.2-0.312,4.354,4.354,0,0,0-.593-0.648c-0.246-.228-0.54-0.465-0.865-0.725-0.162-.131-0.335-0.266-0.511-0.413s-0.361-.3-0.546-0.475a7.3,7.3,0,0,1-.564-0.575,5.181,5.181,0,0,1-.537-0.727,3.968,3.968,0,0,1-.4-0.907,3.653,3.653,0,0,1-.11-0.5,3.533,3.533,0,0,1-.035-0.5,3.585,3.585,0,0,1,.123-0.926,4.205,4.205,0,0,1,.3-0.788,5.738,5.738,0,0,1,.854-1.246A8.215,8.215,0,0,1,63.863,29c-0.126.451-.272,0.875-0.4,1.294s-0.256.825-.355,1.218a6.259,6.259,0,0,0-.191,1.113,1.894,1.894,0,0,0,.1.828,1.385,1.385,0,0,0,.359.481,5.9,5.9,0,0,0,.707.553l0.481,0.324c0.172,0.112.35,0.234,0.536,0.362a11.041,11.041,0,0,1,1.16.906,7.13,7.13,0,0,1,.579.592,5.868,5.868,0,0,1,.527.712,5.257,5.257,0,0,1,.417.825,5.019,5.019,0,0,1,.256.892,5.031,5.031,0,0,1,.009,1.771,5.776,5.776,0,0,1-.508,1.55,7.032,7.032,0,0,1-.809,1.276,8.192,8.192,0,0,1-.993,1.046,8.712,8.712,0,0,1-1.129.847A6.49,6.49,0,0,1,63.346,46.22Z"/>
</svg>
