<svg xmlns="http://www.w3.org/2000/svg" width="116" height="116"><rect id="backgroundrect" width="100%" height="100%" x="0" y="0" fill="none" stroke="none"/>
  <defs>
    <style>
      .cls-1 {
        fill: #e9380e;
        fill-rule: evenodd;
      }
    </style>
  </defs>
  
  
<g class="currentLayer" style=""><title>Layer 1</title><rect fill="#ffffff" stroke-dashoffset="" fill-rule="nonzero" id="svg_4" x="0" y="0" width="116" height="116" style="color: rgb(0, 0, 0);" class=""/><path class="cls-1" d="M75.43697306823731,37.056002456665055 C74.56797306823731,36.228002456665024 65.4899730682373,36.008002456665054 58.53797306823731,35.99900245666504 H58.0899730682373 c-6.977,0.009000000000000025 -16.657,0.2290000000000003 -17.527,1.057 c0,0 -0.5750000000000006,2.009 2.09,4.337 a41.015,41.015 0 0 0 6.558,4.654 A5.245,5.245 0 0 1 52.266973068237306,50.69900245666503 c0,2.5380000000000003 -0.1,8.779 -0.1,8.779 s-2.4,0.9520000000000006 -2.4,1.8 S49.2099730682373,73.54700245666504 49.2099730682373,73.54700245666504 s0.011000000000000025,0.024000000000000028 0.03600000000000001,0.06600000000000011 a1.443,1.443 0 0 0 -0.8770000000000009,1.1 v2.644 c0,1.46 4.352,2.644 9.72,2.644 s9.72,-1.184 9.72,-2.644 V74.71000245666505 a1.565,1.565 0 0 0 -1.02,-1.179 c-0.02100000000000004,-0.4440000000000005 -0.548,-11.425 -0.548,-12.254 c0,-0.8460000000000006 -2.4,-1.8 -2.4,-1.8 s-0.1,-6.24 -0.1,-8.779 A5.245,5.245 0 0 1 66.7899730682373,46.04700245666504 a41.019,41.019 0 0 0 6.559,-4.654 C76.01197306823731,39.066002456665046 75.43697306823731,37.056002456665055 75.43697306823731,37.056002456665055 z" /></g></svg>