<svg xmlns="http://www.w3.org/2000/svg" width="116" height="116" viewBox="0 0 116 116">
  <defs>
    <style>
      .cls-1 {
        fill: #e9380e;
        fill-rule: evenodd;
      }
    </style>
  </defs>
  <path class="cls-1" d="M68.578,74.12L68.508,74a2.791,2.791,0,0,0-1.326-1.125c-0.453-.207-0.925-0.39-1.384-0.59a4,4,0,0,1-.431-0.23c-0.291-.172-0.58-0.348-0.867-0.524a3.943,3.943,0,0,1-.527-0.335,4.827,4.827,0,0,1-1.813-3.659c-0.01-.633-0.047-1.267,0-1.9,0.054-.763.184-1.523,0.276-2.285,0.026-.214.031-0.429,0.047-0.644,0.033-.443.035-0.888,0.112-1.326a6.847,6.847,0,0,1,.319-0.914,1.011,1.011,0,0,0,.063-0.383,0.642,0.642,0,0,1,.115-0.495l-0.607-.431-0.161-.008c-0.44.191-.565,0.156-0.607-0.2-0.05-.426-0.065-0.855-0.1-1.282a0.919,0.919,0,0,0-.087-0.432,1.2,1.2,0,0,1-.037-1.307,0.807,0.807,0,0,0,.006-0.427c-0.031-.36-0.088-0.718-0.106-1.078a2.536,2.536,0,0,1,.457-1.4,0.747,0.747,0,0,0,.1-0.426c-0.063-.825-0.141-1.649-0.223-2.472-0.088-.885-0.189-1.768-0.279-2.653-0.05-.5-0.081-0.993-0.138-1.489a5.7,5.7,0,0,1-.152-1.117,2.452,2.452,0,0,1,.087-1.344,1.515,1.515,0,0,0,.117-0.589c0.705-.1,1.405-0.172,2.095-0.287a10.126,10.126,0,0,0,2.8-.863c0.3-.146.618-0.269,0.905-0.427a1.274,1.274,0,0,0,.8-1.166,1.256,1.256,0,0,0-.653-0.935,5.6,5.6,0,0,0-1.7-.742,14.339,14.339,0,0,0-2.527-.484c-0.191-.02-0.377-0.06-0.611-0.1l0.2-.264a2.447,2.447,0,0,0,.565-1.411,0.865,0.865,0,0,0-.635-0.865,5.415,5.415,0,0,0-.992-0.282,7.573,7.573,0,0,0-2.762,0,5.416,5.416,0,0,0-.992.282,0.865,0.865,0,0,0-.635.865,2.448,2.448,0,0,0,.564,1.411l0.2,0.264c-0.234.039-.42,0.079-0.611,0.1a14.343,14.343,0,0,0-2.527.484,5.6,5.6,0,0,0-1.7.742,1.257,1.257,0,0,0-.653.935,1.275,1.275,0,0,0,.8,1.166c0.286,0.158.607,0.28,0.905,0.426a10.123,10.123,0,0,0,2.8.863c0.689,0.115,1.389.192,2.095,0.287a1.514,1.514,0,0,0,.116.589,2.456,2.456,0,0,1,.087,1.344,5.7,5.7,0,0,1-.152,1.117c-0.057.5-.087,0.993-0.138,1.489-0.09.884-.191,1.768-0.279,2.653-0.082.824-.159,1.648-0.223,2.472a0.746,0.746,0,0,0,.1.426,2.535,2.535,0,0,1,.457,1.4c-0.018.36-.075,0.719-0.106,1.078a0.806,0.806,0,0,0,.006.426,1.2,1.2,0,0,1-.037,1.307,0.921,0.921,0,0,0-.087.432c-0.039.427-.054,0.855-0.1,1.282-0.042.358-.167,0.393-0.607,0.2l-0.161.008-0.606.431a0.64,0.64,0,0,1,.115.495,1.012,1.012,0,0,0,.063.383,6.892,6.892,0,0,1,.319.914c0.077,0.438.079,0.883,0.112,1.326,0.016,0.215.021,0.43,0.047,0.644,0.092,0.761.222,1.522,0.276,2.286,0.045,0.631.008,1.265,0,1.9a4.827,4.827,0,0,1-1.813,3.659,3.943,3.943,0,0,1-.527.335c-0.288.176-.575,0.351-0.867,0.524a4.023,4.023,0,0,1-.431.23c-0.459.2-.931,0.383-1.384,0.59A2.792,2.792,0,0,0,51.929,74l-0.069.124a4.755,4.755,0,0,0-.158,1.385,7.656,7.656,0,0,0,.576,1.988,4.635,4.635,0,0,0,.984,1.5l0.178,0.062a18.337,18.337,0,0,0,5.283.84,3.155,3.155,0,0,1,.373.013,9.255,9.255,0,0,0,2.246,0,3.155,3.155,0,0,1,.373-0.013A18.335,18.335,0,0,0,67,79.055l0.177-.062a4.635,4.635,0,0,0,.984-1.5,7.66,7.66,0,0,0,.576-1.988A4.757,4.757,0,0,0,68.578,74.12ZM56.4,58.534l1.826,1.5-0.258.416L55.8,59.63ZM68.375,70.909a10,10,0,0,1-4.052-.986,16.18,16.18,0,0,0-10.8-1.363,9.58,9.58,0,0,0-3.734,1.8l-0.5-.494a10.085,10.085,0,0,1,4-1.956A16.9,16.9,0,0,1,64.634,69.3c4.017,1.8,6.423.646,7.263-.889a3.434,3.434,0,0,0-1.75-4.672,19.9,19.9,0,0,0-10.436-.892,43.481,43.481,0,0,1-11.418-.233,4.159,4.159,0,0,1-3.262-2.371,2.981,2.981,0,0,1,.382-2.887c1.561-1.823,3.853-1.888,7.214-.207,3.591,1.8,4.344,2.127,4.351,2.131l-0.3.624c-0.029-.013-0.758-0.331-4.388-2.148-3.9-1.951-5.419-1.008-6.31.032a2.321,2.321,0,0,0-.263,2.223,3.286,3.286,0,0,0,2.723,1.931,42.854,42.854,0,0,0,11.219.222,20.362,20.362,0,0,1,10.847.978,3.984,3.984,0,0,1,2.136,5.392,4.347,4.347,0,0,1-4.264,2.372h0ZM49.918,68.561l0.664-.4,1.04,1.552-0.663.4Zm0.545,0.12A9.2,9.2,0,0,0,47.99,69.7c-1.257.753-3.963,3.068-4.859,3.558A1.5,1.5,0,0,1,42,73.612l0.486,0.725,8.4-5.03ZM51.076,69.6a8.792,8.792,0,0,1-2.031,1.679c-1.257.753-4.627,2.077-5.478,2.633a1.373,1.373,0,0,0-.823.816L42.257,74l8.4-5.03Z"/>
  <path class="cls-1" d="M74.947,37.057C74.078,36.229,65,36.009,58.048,36H57.6c-6.977.009-16.657,0.229-17.527,1.057,0,0-.575,2.009,2.09,4.337a41.015,41.015,0,0,0,6.558,4.654A5.245,5.245,0,0,1,51.777,50.7c0,2.538-.1,8.779-0.1,8.779s-2.4.952-2.4,1.8S48.72,73.548,48.72,73.548s0.011,0.024.036,0.066a1.443,1.443,0,0,0-.877,1.1v2.644c0,1.46,4.352,2.644,9.72,2.644s9.72-1.184,9.72-2.644V74.711a1.565,1.565,0,0,0-1.02-1.179c-0.021-.444-0.548-11.425-0.548-12.254,0-.846-2.4-1.8-2.4-1.8s-0.1-6.24-.1-8.779A5.245,5.245,0,0,1,66.3,46.048a41.019,41.019,0,0,0,6.559-4.654C75.522,39.067,74.947,37.057,74.947,37.057Z"/>
</svg>
