<svg xmlns="http://www.w3.org/2000/svg" width="116" height="116"><rect id="backgroundrect" width="100%" height="100%" x="0" y="0" fill="none" stroke="none"/>
  <defs>
    <style>
      .cls-1 {
        fill: #e9380e;
        fill-rule: evenodd;
      }
    </style>
  </defs>
  
<g class="currentLayer" style=""><title>Layer 1</title><rect fill="#ffffff" stroke-dashoffset="" fill-rule="nonzero" id="svg_5" x="0" y="0" width="117" height="116" style="color: rgb(0, 0, 0);"/><path class="cls-1 selected" d="M40.87081744384767,34.07699893188476 c-0.3890000000000003,1.09 -0.7190000000000004,2.13 -1.008,3.151 s-0.519,2.018 -0.7000000000000004,2.991 a23.568,23.568 0 0 0 -0.34700000000000036,2.839 a19.5,19.5 0 0 0 0.026000000000000027,2.662 c0.024000000000000014,0.2140000000000001 0.05000000000000004,0.4260000000000002 0.06600000000000006,0.6360000000000005 s0.06400000000000006,0.4180000000000002 0.09400000000000011,0.6250000000000004 c0.008000000000000007,0.05200000000000004 0.015000000000000012,0.1 0.021000000000000015,0.1550000000000001 L39.05981744384766,47.29499893188476 L39.12081744384767,47.59499893188476 l0.05900000000000004,0.3000000000000002 l0.07600000000000005,0.3000000000000002 c0.08500000000000008,0.4 0.2210000000000001,0.793 0.3290000000000003,1.186 c0.06700000000000007,0.19400000000000014 0.14100000000000001,0.3870000000000003 0.20500000000000004,0.5810000000000004 c0.035,0.1 0.06100000000000004,0.19400000000000014 0.1,0.2890000000000002 l0.11900000000000008,0.2870000000000002 c0.04000000000000003,0.09500000000000011 0.07800000000000006,0.19100000000000014 0.11500000000000007,0.2860000000000002 l0.05600000000000003,0.14400000000000004 c0.019000000000000013,0.04800000000000003 0.04500000000000004,0.09500000000000011 0.06600000000000006,0.14200000000000004 c0.08900000000000009,0.1890000000000001 0.1770000000000001,0.3780000000000002 0.261,0.5680000000000004 l0.06300000000000006,0.14300000000000004 l0.07500000000000002,0.14 c0.05000000000000004,0.09300000000000011 0.1,0.1870000000000001 0.1470000000000001,0.281 l0.14400000000000004,0.2820000000000002 l0.07100000000000002,0.14200000000000004 l0.08200000000000007,0.139 c0.11000000000000006,0.1850000000000001 0.2170000000000001,0.3710000000000002 0.3220000000000003,0.558 l0.4340000000000002,0.7580000000000005 c0.16300000000000014,0.2880000000000002 0.3120000000000002,0.5860000000000004 0.462,0.8830000000000005 s0.2870000000000002,0.6000000000000004 0.4100000000000002,0.911 l0.1900000000000001,0.463 l0.17400000000000004,0.4700000000000002 c0.12000000000000002,0.3110000000000002 0.2110000000000001,0.6340000000000005 0.3110000000000002,0.9520000000000004 s0.1820000000000001,0.6420000000000005 0.253,0.9680000000000004 c0.03700000000000001,0.16300000000000014 0.07700000000000005,0.3240000000000003 0.11000000000000006,0.4870000000000002 l0.08900000000000009,0.4900000000000002 a17,17 0 0 1 0.231,1.965 c0.024000000000000014,0.3280000000000003 0.02900000000000002,0.6540000000000006 0.03800000000000001,0.979 c0,0.16300000000000014 0,0.3250000000000003 0,0.4870000000000002 s-0.007000000000000008,0.3240000000000003 -0.016000000000000014,0.4850000000000002 a20.3,20.3 0 0 1 -1.713,7.223 a23.135,23.135 0 0 1 -1.6620000000000008,3.134 a24.244,24.244 0 0 1 -2.052,2.8 a23.713,23.713 0 0 1 -2.391,2.444 c-0.4250000000000002,0.3770000000000002 -0.8650000000000004,0.7360000000000004 -1.322,1.075 a13.134,13.134 0 0 1 -1.427,0.9410000000000004 l-0.07600000000000005,-0.06600000000000006 c0.3650000000000002,-1.073 0.7080000000000004,-2.112 1.033,-3.1390000000000002 s0.6290000000000004,-2.037 0.9,-3.039 s0.521,-1.9889999999999999 0.7290000000000004,-2.965 s0.3760000000000002,-1.94 0.5,-2.883 a22.609,22.609 0 0 0 0.11900000000000008,-5.394 a15.736,15.736 0 0 0 -0.461,-2.434 c-0.10700000000000005,-0.3900000000000003 -0.231,-0.771 -0.3650000000000002,-1.147 c-0.1500000000000001,-0.3710000000000002 -0.2840000000000002,-0.7460000000000004 -0.462,-1.1 c-0.04100000000000003,-0.09100000000000011 -0.08300000000000007,-0.1810000000000001 -0.131,-0.27 l-0.134,-0.269 c-0.04500000000000004,-0.08900000000000009 -0.1,-0.1760000000000001 -0.14300000000000004,-0.265 s-0.09200000000000011,-0.1790000000000001 -0.1450000000000001,-0.265 l-0.1530000000000001,-0.262 l-0.2090000000000001,-0.3670000000000002 Q34.29881744384767,56.994998931884766 34.07481744384765,56.57299893188477 l-0.11400000000000007,-0.2100000000000001 l-0.1,-0.2180000000000001 l-0.2,-0.4380000000000002 l-0.2,-0.4390000000000002 l-0.1,-0.2200000000000001 l-0.08800000000000008,-0.22700000000000015 c-0.11600000000000008,-0.3000000000000002 -0.22900000000000015,-0.6090000000000004 -0.34100000000000036,-0.914 c-0.027000000000000027,-0.07700000000000005 -0.05700000000000003,-0.1520000000000001 -0.08100000000000006,-0.23 l-0.07,-0.23600000000000004 l-0.138,-0.4720000000000002 L32.498817443847656,52.494998931884766 c-0.024000000000000014,-0.07800000000000006 -0.04200000000000003,-0.1580000000000001 -0.05800000000000004,-0.2390000000000001 l-0.05200000000000004,-0.2420000000000001 c-0.06900000000000008,-0.3230000000000003 -0.136,-0.6440000000000005 -0.2,-0.9680000000000004 s-0.08800000000000008,-0.6550000000000006 -0.129,-0.981 l-0.028000000000000014,-0.2450000000000001 l-0.015000000000000012,-0.2470000000000001 L31.998817443847656,49.07899893188477 a16.031,16.031 0 0 1 1.454,-7.529 a16.313,16.313 0 0 1 1.9,-3.143 c0.09300000000000011,-0.11900000000000008 0.1820000000000001,-0.2390000000000001 0.277,-0.3550000000000002 l0.2920000000000002,-0.34200000000000036 c0.1900000000000001,-0.23 0.4,-0.4450000000000003 0.6000000000000004,-0.6600000000000007 c0.1,-0.10900000000000006 0.20600000000000004,-0.2130000000000001 0.3140000000000002,-0.3160000000000002 l0.3190000000000003,-0.3070000000000002 c0.10900000000000006,-0.1 0.2210000000000001,-0.2 0.3310000000000003,-0.2940000000000002 s0.2200000000000001,-0.19400000000000014 0.33600000000000035,-0.2860000000000002 a13.843,13.843 0 0 1 1.421,-1.032 a9.469,9.469 0 0 1 1.557,-0.81 zM59.345817443847665,34.79499893188476 c-0.3880000000000003,1.09 -0.7190000000000004,2.13 -1.007,3.151 s-0.519,2.018 -0.7000000000000004,2.991 a23.481,23.481 0 0 0 -0.34700000000000036,2.84 a19.518,19.518 0 0 0 0.026000000000000027,2.662 c0.024000000000000014,0.2140000000000001 0.05000000000000004,0.4260000000000002 0.06600000000000006,0.6360000000000005 s0.06500000000000006,0.4180000000000002 0.09400000000000011,0.6250000000000004 c0.008000000000000007,0.05200000000000004 0.015000000000000012,0.1 0.021000000000000015,0.1550000000000001 l0.031000000000000028,0.1540000000000001 L57.59881744384765,48.31199893188477 l0.05900000000000004,0.3000000000000002 l0.07600000000000005,0.3000000000000002 c0.08500000000000008,0.4 0.2210000000000001,0.794 0.3290000000000003,1.186 c0.06700000000000007,0.19500000000000015 0.14100000000000001,0.3880000000000003 0.20500000000000004,0.5810000000000004 c0.035,0.1 0.06100000000000004,0.19400000000000014 0.1,0.2900000000000002 l0.11900000000000008,0.2860000000000002 c0.04000000000000003,0.1 0.07700000000000005,0.19100000000000014 0.11500000000000007,0.2870000000000002 L58.65781744384765,51.69499893188477 c0.019000000000000013,0.04800000000000003 0.04500000000000004,0.09400000000000011 0.06600000000000006,0.14200000000000004 c0.08900000000000009,0.1890000000000001 0.1770000000000001,0.3780000000000002 0.262,0.5680000000000004 l0.06300000000000006,0.14200000000000004 l0.07500000000000002,0.14 c0.05000000000000004,0.09300000000000011 0.1,0.1870000000000001 0.1470000000000001,0.281 l0.14400000000000004,0.2820000000000002 l0.07100000000000002,0.14100000000000001 l0.08200000000000007,0.139 q0.16500000000000015,0.277 0.3220000000000003,0.558 l0.4340000000000002,0.7580000000000005 c0.16300000000000014,0.2880000000000002 0.3130000000000002,0.5860000000000004 0.462,0.8820000000000005 s0.2870000000000002,0.6000000000000004 0.4100000000000002,0.912 l0.1900000000000001,0.463 l0.17300000000000001,0.4700000000000002 c0.12000000000000002,0.3120000000000002 0.2110000000000001,0.6340000000000005 0.3110000000000002,0.9520000000000004 s0.1820000000000001,0.6420000000000005 0.253,0.9680000000000004 c0.03700000000000001,0.16200000000000014 0.07700000000000005,0.3240000000000003 0.11000000000000006,0.4870000000000002 l0.0900000000000001,0.4900000000000002 a17.008,17.008 0 0 1 0.231,1.965 c0.024000000000000014,0.3270000000000003 0.02900000000000002,0.6530000000000006 0.03800000000000001,0.979 c0,0.16300000000000014 0,0.3250000000000003 0,0.4870000000000002 s-0.007000000000000008,0.3240000000000003 -0.016000000000000014,0.4850000000000002 a20.3,20.3 0 0 1 -1.713,7.223 A23.141,23.141 0 0 1 59.198817443847645,74.73899893188477 a24.282,24.282 0 0 1 -2.051,2.8 a23.817,23.817 0 0 1 -2.391,2.444 q-0.6380000000000005,0.5650000000000004 -1.322,1.075 A13.1,13.1 0 0 1 52.00381744384765,81.99499893188477 l-0.07600000000000005,-0.06600000000000006 c0.3640000000000002,-1.073 0.7070000000000004,-2.112 1.033,-3.1390000000000002 s0.6290000000000004,-2.038 0.9,-3.038 s0.521,-1.9889999999999999 0.7290000000000004,-2.965 s0.3760000000000002,-1.939 0.5,-2.883 a22.591,22.591 0 0 0 0.11800000000000008,-5.394 a15.742,15.742 0 0 0 -0.46,-2.434 c-0.10800000000000005,-0.3900000000000003 -0.231,-0.771 -0.3660000000000002,-1.147 c-0.1500000000000001,-0.3710000000000002 -0.2830000000000002,-0.7460000000000004 -0.461,-1.1 c-0.04100000000000003,-0.09100000000000011 -0.08300000000000007,-0.1820000000000001 -0.131,-0.27 l-0.133,-0.269 c-0.04500000000000004,-0.08900000000000009 -0.1,-0.1770000000000001 -0.14300000000000004,-0.265 s-0.09200000000000011,-0.1780000000000001 -0.1460000000000001,-0.264 L53.22181744384767,58.494998931884766 l-0.2080000000000001,-0.3670000000000002 q-0.23500000000000001,-0.4160000000000002 -0.463,-0.8360000000000004 l-0.11400000000000007,-0.2100000000000001 l-0.1,-0.2180000000000001 l-0.2,-0.4380000000000002 l-0.2,-0.4390000000000002 l-0.1,-0.2200000000000001 l-0.08800000000000008,-0.22800000000000015 c-0.11600000000000008,-0.3000000000000002 -0.22900000000000015,-0.6090000000000004 -0.34100000000000036,-0.914 c-0.027000000000000027,-0.07700000000000005 -0.05700000000000003,-0.1520000000000001 -0.08100000000000006,-0.23 l-0.07,-0.23600000000000004 l-0.138,-0.4720000000000002 l-0.134,-0.4720000000000002 c-0.024000000000000014,-0.07800000000000006 -0.04100000000000003,-0.1580000000000001 -0.05800000000000004,-0.2390000000000001 l-0.05200000000000004,-0.2420000000000001 c-0.06800000000000007,-0.3220000000000003 -0.136,-0.6440000000000005 -0.19500000000000015,-0.9670000000000004 s-0.08900000000000009,-0.6550000000000006 -0.129,-0.982 l-0.028000000000000014,-0.2450000000000001 L50.498817443847656,50.28899893188476 L50.47181744384767,49.79499893188476 a16.029,16.029 0 0 1 1.454,-7.529 a16.3,16.3 0 0 1 1.9,-3.143 c0.09300000000000011,-0.11900000000000008 0.1820000000000001,-0.2390000000000001 0.277,-0.3550000000000002 l0.2920000000000002,-0.34200000000000036 c0.1900000000000001,-0.23 0.4,-0.4450000000000003 0.6000000000000004,-0.6610000000000007 c0.1,-0.10900000000000006 0.20600000000000004,-0.2130000000000001 0.3140000000000002,-0.3150000000000002 l0.3190000000000003,-0.3070000000000002 c0.10900000000000006,-0.1 0.2210000000000001,-0.2 0.3310000000000003,-0.2940000000000002 s0.2200000000000001,-0.19400000000000014 0.33600000000000035,-0.2860000000000002 a13.76,13.76 0 0 1 1.421,-1.032 a9.449,9.449 0 0 1 1.557,-0.81 zm21.428,0 c-0.3880000000000003,1.09 -0.7190000000000004,2.13 -1.007,3.151 s-0.519,2.018 -0.7000000000000004,2.991 a23.6,23.6 0 0 0 -0.34600000000000036,2.84 a19.486,19.486 0 0 0 0.026000000000000027,2.662 c0.024000000000000014,0.2140000000000001 0.05000000000000004,0.4260000000000002 0.06600000000000006,0.6360000000000005 s0.06400000000000006,0.4180000000000002 0.09400000000000011,0.6250000000000004 c0.008000000000000007,0.05200000000000004 0.015000000000000012,0.1 0.021000000000000015,0.1550000000000001 l0.031000000000000028,0.1540000000000001 l0.06100000000000004,0.3060000000000002 l0.05900000000000004,0.3000000000000002 l0.07600000000000005,0.3000000000000002 c0.08500000000000008,0.4 0.2210000000000001,0.794 0.3300000000000003,1.186 c0.06700000000000007,0.19500000000000015 0.14,0.3880000000000003 0.2,0.5810000000000004 c0.035,0.1 0.06100000000000004,0.19400000000000014 0.1,0.2900000000000002 l0.11900000000000008,0.2860000000000002 c0.04000000000000003,0.1 0.07800000000000006,0.19100000000000014 0.11500000000000007,0.2870000000000002 L80.08581744384766,51.69499893188477 c0.019000000000000013,0.04800000000000003 0.04400000000000004,0.09400000000000011 0.06600000000000006,0.14200000000000004 c0.08900000000000009,0.1890000000000001 0.1770000000000001,0.3780000000000002 0.261,0.5680000000000004 l0.06300000000000006,0.14200000000000004 l0.07500000000000002,0.14 c0.05000000000000004,0.09300000000000011 0.1,0.1870000000000001 0.1480000000000001,0.281 l0.14400000000000004,0.2820000000000002 l0.07100000000000002,0.14100000000000001 L80.99881744384766,53.52599893188477 q0.16500000000000015,0.277 0.3220000000000003,0.558 l0.4340000000000002,0.7580000000000005 c0.16300000000000014,0.2880000000000002 0.3120000000000002,0.5860000000000004 0.462,0.8820000000000005 s0.2870000000000002,0.6000000000000004 0.4100000000000002,0.912 l0.1900000000000001,0.463 l0.17300000000000001,0.4700000000000002 c0.12000000000000002,0.3120000000000002 0.2110000000000001,0.6340000000000005 0.3110000000000002,0.9520000000000004 s0.1820000000000001,0.6420000000000005 0.253,0.9680000000000004 c0.03700000000000001,0.16200000000000014 0.07700000000000005,0.3240000000000003 0.11000000000000006,0.4870000000000002 l0.08900000000000009,0.4900000000000002 a16.965,16.965 0 0 1 0.231,1.965 c0.024000000000000014,0.3270000000000003 0.02900000000000002,0.6530000000000006 0.03800000000000001,0.979 c0,0.16300000000000014 0,0.3250000000000003 0,0.4870000000000002 s-0.007000000000000008,0.3240000000000003 -0.016000000000000014,0.4850000000000002 a20.3,20.3 0 0 1 -1.713,7.223 a23.164,23.164 0 0 1 -1.6620000000000008,3.134 a24.307,24.307 0 0 1 -2.052,2.8 a23.777,23.777 0 0 1 -2.391,2.444 q-0.6380000000000005,0.5650000000000004 -1.322,1.075 A13.15,13.15 0 0 1 73.43181744384766,81.99499893188477 l-0.07700000000000005,-0.06600000000000006 c0.3640000000000002,-1.073 0.7070000000000004,-2.112 1.033,-3.1390000000000002 s0.6290000000000004,-2.038 0.9,-3.038 s0.521,-1.9889999999999999 0.7290000000000004,-2.965 s0.3760000000000002,-1.939 0.5,-2.883 a22.585,22.585 0 0 0 0.11800000000000008,-5.394 a15.648,15.648 0 0 0 -0.46,-2.434 c-0.10800000000000005,-0.3900000000000003 -0.231,-0.771 -0.3650000000000002,-1.147 c-0.1500000000000001,-0.3710000000000002 -0.2840000000000002,-0.7460000000000004 -0.462,-1.1 c-0.04100000000000003,-0.09100000000000011 -0.08300000000000007,-0.1820000000000001 -0.131,-0.27 l-0.133,-0.269 c-0.04500000000000004,-0.08900000000000009 -0.1,-0.1770000000000001 -0.14400000000000004,-0.265 s-0.09100000000000011,-0.1780000000000001 -0.1450000000000001,-0.264 L74.64981744384765,58.494998931884766 l-0.2090000000000001,-0.3670000000000002 q-0.23500000000000001,-0.4160000000000002 -0.463,-0.8360000000000004 l-0.11400000000000007,-0.2100000000000001 l-0.1,-0.2180000000000001 l-0.2,-0.4380000000000002 l-0.2,-0.4390000000000002 l-0.1,-0.2200000000000001 l-0.08800000000000008,-0.22800000000000015 c-0.11600000000000008,-0.3000000000000002 -0.22900000000000015,-0.6090000000000004 -0.34100000000000036,-0.914 c-0.027000000000000027,-0.07700000000000005 -0.05700000000000003,-0.1520000000000001 -0.08100000000000006,-0.23 l-0.07,-0.23600000000000004 l-0.138,-0.4720000000000002 l-0.133,-0.4720000000000002 c-0.024000000000000014,-0.07800000000000006 -0.04200000000000003,-0.1580000000000001 -0.05800000000000004,-0.2390000000000001 L72.29881744384765,52.729998931884765 c-0.06800000000000007,-0.3220000000000003 -0.136,-0.6440000000000005 -0.19500000000000015,-0.9670000000000004 s-0.08800000000000008,-0.6550000000000006 -0.129,-0.982 l-0.028000000000000014,-0.2450000000000001 l-0.015000000000000012,-0.2470000000000001 L71.89881744384766,49.79499893188476 a16.023,16.023 0 0 1 1.454,-7.529 a16.3,16.3 0 0 1 1.9,-3.143 c0.09300000000000011,-0.11900000000000008 0.1820000000000001,-0.2390000000000001 0.277,-0.3550000000000002 l0.2920000000000002,-0.34200000000000036 c0.1900000000000001,-0.23 0.4,-0.4450000000000003 0.6000000000000004,-0.6610000000000007 c0.1,-0.10900000000000006 0.20600000000000004,-0.2130000000000001 0.3140000000000002,-0.3150000000000002 l0.3190000000000003,-0.3070000000000002 c0.10900000000000006,-0.1 0.2210000000000001,-0.2 0.3310000000000003,-0.2940000000000002 s0.2200000000000001,-0.19400000000000014 0.33600000000000035,-0.2860000000000002 a13.765,13.765 0 0 1 1.42,-1.032 a9.459,9.459 0 0 1 1.557,-0.81 z" /></g></svg>