<svg xmlns="http://www.w3.org/2000/svg" width="116" height="116" viewBox="0 0 116 116">
  <defs>
    <style>
      .cls-1 {
        fill: #e9380e;
        fill-rule: evenodd;
      }
    </style>
  </defs>
  <path class="cls-1" d="M40.872,34.082c-0.389,1.09-.719,2.13-1.008,3.151s-0.519,2.018-.7,2.991a23.568,23.568,0,0,0-.347,2.839,19.5,19.5,0,0,0,.026,2.662c0.024,0.214.05,0.426,0.066,0.636s0.064,0.418.094,0.625c0.008,0.052.015,0.1,0.021,0.155L39.061,47.3,39.122,47.6l0.059,0.3,0.076,0.3c0.085,0.4.221,0.793,0.329,1.186,0.067,0.194.141,0.387,0.205,0.581,0.035,0.1.061,0.194,0.1,0.289l0.119,0.287c0.04,0.095.078,0.191,0.115,0.286l0.056,0.144c0.019,0.048.045,0.095,0.066,0.142,0.089,0.189.177,0.378,0.261,0.568l0.063,0.143,0.075,0.14c0.05,0.093.1,0.187,0.147,0.281l0.144,0.282,0.071,0.142,0.082,0.139c0.11,0.185.217,0.371,0.322,0.558l0.434,0.758c0.163,0.288.312,0.586,0.462,0.883s0.287,0.6.41,0.911l0.19,0.463,0.174,0.47c0.12,0.311.211,0.634,0.311,0.952s0.182,0.642.253,0.968c0.037,0.163.077,0.324,0.11,0.487l0.089,0.49a17,17,0,0,1,.231,1.965c0.024,0.328.029,0.654,0.038,0.979,0,0.163,0,.325,0,0.487s-0.007.324-.016,0.485a20.3,20.3,0,0,1-1.713,7.223,23.135,23.135,0,0,1-1.662,3.134,24.244,24.244,0,0,1-2.052,2.8,23.713,23.713,0,0,1-2.391,2.444c-0.425.377-.865,0.736-1.322,1.075a13.134,13.134,0,0,1-1.427.941l-0.076-.066c0.365-1.073.708-2.112,1.033-3.139s0.629-2.037.9-3.039,0.521-1.989.729-2.965,0.376-1.94.5-2.883a22.609,22.609,0,0,0,.119-5.394,15.736,15.736,0,0,0-.461-2.434c-0.107-.39-0.231-0.771-0.365-1.147-0.15-.371-0.284-0.746-0.462-1.1-0.041-.091-0.083-0.181-0.131-0.27l-0.134-.269c-0.045-.089-0.1-0.176-0.143-0.265s-0.092-.179-0.145-0.265l-0.153-.262-0.209-.367Q34.3,57,34.076,56.578l-0.114-.21-0.1-.218-0.2-.438-0.2-.439-0.1-.22-0.088-.227c-0.116-.3-0.229-0.609-0.341-0.914-0.027-.077-0.057-0.152-0.081-0.23l-0.07-.236-0.138-.472L32.5,52.5c-0.024-.078-0.042-0.158-0.058-0.239l-0.052-.242c-0.069-.323-0.136-0.644-0.2-0.968s-0.088-.655-0.129-0.981l-0.028-.245-0.015-.247L32,49.084a16.031,16.031,0,0,1,1.454-7.529,16.313,16.313,0,0,1,1.9-3.143c0.093-.119.182-0.239,0.277-0.355l0.292-.342c0.19-.23.4-0.445,0.6-0.66,0.1-.109.206-0.213,0.314-0.316l0.319-.307c0.109-.1.221-0.2,0.331-0.294s0.22-.194.336-0.286a13.843,13.843,0,0,1,1.421-1.032,9.469,9.469,0,0,1,1.557-.81ZM59.347,34.8c-0.388,1.09-.719,2.13-1.007,3.151s-0.519,2.018-.7,2.991a23.481,23.481,0,0,0-.347,2.84,19.518,19.518,0,0,0,.026,2.662c0.024,0.214.05,0.426,0.066,0.636s0.065,0.418.094,0.625c0.008,0.052.015,0.1,0.021,0.155l0.031,0.154L57.6,48.317l0.059,0.3,0.076,0.3c0.085,0.4.221,0.794,0.329,1.186,0.067,0.195.141,0.388,0.205,0.581,0.035,0.1.061,0.194,0.1,0.29l0.119,0.286c0.04,0.1.077,0.191,0.115,0.287L58.659,51.7c0.019,0.048.045,0.094,0.066,0.142,0.089,0.189.177,0.378,0.262,0.568l0.063,0.142,0.075,0.14c0.05,0.093.1,0.187,0.147,0.281l0.144,0.282,0.071,0.141,0.082,0.139q0.165,0.277.322,0.558l0.434,0.758c0.163,0.288.313,0.586,0.462,0.882s0.287,0.6.41,0.912l0.19,0.463,0.173,0.47c0.12,0.312.211,0.634,0.311,0.952s0.182,0.642.253,0.968c0.037,0.162.077,0.324,0.11,0.487l0.09,0.49a17.008,17.008,0,0,1,.231,1.965c0.024,0.327.029,0.653,0.038,0.979,0,0.163,0,.325,0,0.487s-0.007.324-.016,0.485a20.3,20.3,0,0,1-1.713,7.223A23.141,23.141,0,0,1,59.2,74.744a24.282,24.282,0,0,1-2.051,2.8,23.817,23.817,0,0,1-2.391,2.444q-0.638.565-1.322,1.075A13.1,13.1,0,0,1,52.005,82l-0.076-.066c0.364-1.073.707-2.112,1.033-3.139s0.629-2.038.9-3.038,0.521-1.989.729-2.965,0.376-1.939.5-2.883a22.591,22.591,0,0,0,.118-5.394,15.742,15.742,0,0,0-.46-2.434c-0.108-.39-0.231-0.771-0.366-1.147-0.15-.371-0.283-0.746-0.461-1.1-0.041-.091-0.083-0.182-0.131-0.27l-0.133-.269c-0.045-.089-0.1-0.177-0.143-0.265s-0.092-.178-0.146-0.264L53.223,58.5l-0.208-.367q-0.235-.416-0.463-0.836l-0.114-.21-0.1-.218-0.2-.438-0.2-.439-0.1-.22-0.088-.228c-0.116-.3-0.229-0.609-0.341-0.914-0.027-.077-0.057-0.152-0.081-0.23l-0.07-.236-0.138-.472-0.134-.472c-0.024-.078-0.041-0.158-0.058-0.239l-0.052-.242c-0.068-.322-0.136-0.644-0.195-0.967s-0.089-.655-0.129-0.982l-0.028-.245L50.5,50.294,50.473,49.8a16.029,16.029,0,0,1,1.454-7.529,16.3,16.3,0,0,1,1.9-3.143c0.093-.119.182-0.239,0.277-0.355l0.292-.342c0.19-.23.4-0.445,0.6-0.661,0.1-.109.206-0.213,0.314-0.315l0.319-.307c0.109-.1.221-0.2,0.331-0.294s0.22-.194.336-0.286a13.76,13.76,0,0,1,1.421-1.032,9.449,9.449,0,0,1,1.557-.81Zm21.428,0c-0.388,1.09-.719,2.13-1.007,3.151s-0.519,2.018-.7,2.991a23.6,23.6,0,0,0-.346,2.84,19.486,19.486,0,0,0,.026,2.662c0.024,0.214.05,0.426,0.066,0.636s0.064,0.418.094,0.625c0.008,0.052.015,0.1,0.021,0.155l0.031,0.154,0.061,0.306,0.059,0.3,0.076,0.3c0.085,0.4.221,0.794,0.33,1.186,0.067,0.195.14,0.388,0.2,0.581,0.035,0.1.061,0.194,0.1,0.29l0.119,0.286c0.04,0.1.078,0.191,0.115,0.287L80.087,51.7c0.019,0.048.044,0.094,0.066,0.142,0.089,0.189.177,0.378,0.261,0.568l0.063,0.142,0.075,0.14c0.05,0.093.1,0.187,0.148,0.281l0.144,0.282,0.071,0.141L81,53.531q0.165,0.277.322,0.558l0.434,0.758c0.163,0.288.312,0.586,0.462,0.882s0.287,0.6.41,0.912l0.19,0.463,0.173,0.47c0.12,0.312.211,0.634,0.311,0.952s0.182,0.642.253,0.968c0.037,0.162.077,0.324,0.11,0.487l0.089,0.49a16.965,16.965,0,0,1,.231,1.965c0.024,0.327.029,0.653,0.038,0.979,0,0.163,0,.325,0,0.487s-0.007.324-.016,0.485a20.3,20.3,0,0,1-1.713,7.223,23.164,23.164,0,0,1-1.662,3.134,24.307,24.307,0,0,1-2.052,2.8,23.777,23.777,0,0,1-2.391,2.444q-0.638.565-1.322,1.075A13.15,13.15,0,0,1,73.433,82l-0.077-.066c0.364-1.073.707-2.112,1.033-3.139s0.629-2.038.9-3.038,0.521-1.989.729-2.965,0.376-1.939.5-2.883a22.585,22.585,0,0,0,.118-5.394,15.648,15.648,0,0,0-.46-2.434c-0.108-.39-0.231-0.771-0.365-1.147-0.15-.371-0.284-0.746-0.462-1.1-0.041-.091-0.083-0.182-0.131-0.27l-0.133-.269c-0.045-.089-0.1-0.177-0.144-0.265s-0.091-.178-0.145-0.264L74.651,58.5l-0.209-.367q-0.235-.416-0.463-0.836l-0.114-.21-0.1-.218-0.2-.438-0.2-.439-0.1-.22-0.088-.228c-0.116-.3-0.229-0.609-0.341-0.914-0.027-.077-0.057-0.152-0.081-0.23l-0.07-.236-0.138-.472-0.133-.472c-0.024-.078-0.042-0.158-0.058-0.239L72.3,52.735c-0.068-.322-0.136-0.644-0.195-0.967s-0.088-.655-0.129-0.982l-0.028-.245-0.015-.247L71.9,49.8a16.023,16.023,0,0,1,1.454-7.529,16.3,16.3,0,0,1,1.9-3.143c0.093-.119.182-0.239,0.277-0.355l0.292-.342c0.19-.23.4-0.445,0.6-0.661,0.1-.109.206-0.213,0.314-0.315l0.319-.307c0.109-.1.221-0.2,0.331-0.294s0.22-.194.336-0.286a13.765,13.765,0,0,1,1.42-1.032,9.459,9.459,0,0,1,1.557-.81Z"/>
</svg>
