<svg xmlns="http://www.w3.org/2000/svg" width="116" height="116" style=""><rect id="backgroundrect" width="100%" height="100%" x="0" y="0" fill="none" stroke="none"/>
  <defs>
    <style>
      .cls-1 {
        fill: #e9380e;
        fill-rule: evenodd;
      }
    </style>
  </defs>
  
<g class="currentLayer" style=""><title>Layer 1</title><rect fill="#ffffff" stroke-dashoffset="" fill-rule="nonzero" id="svg_3" x="0" y="0" width="116" height="116" style="color: rgb(0, 0, 0);" class=""/><path class="cls-1" d="M55.053,66.60800286102295 l-16.242,2.14 L31.051999999999992,64.57000286102294 L47.5,62.430002861022956 zM39.328,70.17400286102296 l16.863,-2.242 v16.71 L39.328,87.39400286102295 V70.17400286102296 zm-1.3450000000000002,-0.1 V86.98600286102295 L29.5,82.40000286102295 l0.4140000000000002,-16.812 zM60.72999999999999,66.53700286102296 L77.11000000000001,68.70000286102295 l7.825,-4.213 L68.34699999999998,62.32400286102295 zm15.858,3.6 L59.583,67.87300286102295 V84.72500286102294 L76.589,87.50000286102295 V70.13400286102295 zm1.356,-0.1 V87.08900286102295 L86.5,82.46500286102295 L86.08299999999997,65.51000286102295 zM48.63900000000001,60.800002861022946 c0.2460000000000001,-0.405 0.4830000000000002,-0.789 0.7000000000000004,-1.172 s0.4290000000000002,-0.7570000000000005 0.6100000000000004,-1.127 a8.141,8.141 0 0 0 0.4490000000000003,-1.083 a3.416,3.416 0 0 0 0.1800000000000001,-0.9590000000000004 a1.425,1.425 0 0 0 -0.135,-0.6720000000000007 a1.8930000000000002,1.8930000000000002 0 0 0 -0.3780000000000002,-0.5 L50,55.22200286102296 c-0.022000000000000026,-0.022000000000000026 -0.05000000000000004,-0.04300000000000004 -0.07400000000000002,-0.06500000000000006 s-0.05100000000000004,-0.04400000000000004 -0.07800000000000006,-0.06600000000000006 l-0.1,-0.07800000000000006 q-0.125,-0.1 -0.2460000000000001,-0.20600000000000004 L49.25800000000001,54.60000286102295 c-0.16600000000000015,-0.14 -0.3310000000000003,-0.2840000000000002 -0.5,-0.4290000000000002 s-0.33400000000000035,-0.3000000000000002 -0.5,-0.4490000000000003 s-0.33400000000000035,-0.3130000000000002 -0.5,-0.4770000000000002 c-0.08300000000000007,-0.08100000000000006 -0.16600000000000015,-0.16600000000000015 -0.2480000000000001,-0.252 s-0.16600000000000015,-0.16900000000000018 -0.2480000000000001,-0.261 a10.369,10.369 0 0 1 -0.9450000000000004,-1.174 c-0.07300000000000002,-0.11000000000000006 -0.1450000000000001,-0.22300000000000014 -0.2170000000000001,-0.33500000000000035 s-0.136,-0.23700000000000004 -0.2,-0.3550000000000002 s-0.127,-0.2490000000000001 -0.1860000000000001,-0.3750000000000002 s-0.11000000000000006,-0.264 -0.16300000000000014,-0.4 s-0.09100000000000011,-0.277 -0.134,-0.4150000000000002 s-0.07,-0.2880000000000002 -0.1,-0.4310000000000002 s-0.04200000000000003,-0.3000000000000002 -0.06100000000000004,-0.4430000000000002 s-0.014000000000000007,-0.3000000000000002 -0.018000000000000013,-0.4470000000000003 s0.014000000000000007,-0.3000000000000002 0.026000000000000027,-0.4430000000000002 s0.04400000000000004,-0.2890000000000002 0.06800000000000007,-0.4310000000000002 s0.07200000000000002,-0.277 0.10800000000000005,-0.4130000000000002 s0.09400000000000011,-0.262 0.14200000000000004,-0.3910000000000003 a5.48,5.48 0 0 1 0.807,-1.335 a6.694,6.694 0 0 1 0.5,-0.539 c0.08900000000000009,-0.08300000000000007 0.17400000000000004,-0.16900000000000018 0.267,-0.2460000000000001 s0.1860000000000001,-0.1520000000000001 0.279,-0.22700000000000015 s0.1880000000000001,-0.1450000000000001 0.2880000000000002,-0.2120000000000001 l0.2950000000000002,-0.2 c0.2,-0.12400000000000005 0.4090000000000002,-0.2410000000000001 0.6240000000000004,-0.34700000000000036 c-0.06700000000000007,0.231 -0.1500000000000001,0.4440000000000003 -0.22300000000000014,0.6600000000000007 l-0.10800000000000005,0.3200000000000003 c-0.018000000000000013,0.05300000000000004 -0.03600000000000001,0.10500000000000002 -0.05500000000000003,0.1570000000000001 s-0.03200000000000003,0.10600000000000002 -0.04900000000000003,0.1580000000000001 l-0.1,0.3100000000000002 c-0.03200000000000003,0.1 -0.05800000000000004,0.20600000000000004 -0.08800000000000008,0.3070000000000002 c-0.06300000000000006,0.2 -0.1,0.4 -0.1510000000000001,0.6000000000000004 a5.654,5.654 0 0 0 -0.126,1.105 a2.9210000000000003,2.9210000000000003 0 0 0 0.14,0.916 a3.285,3.285 0 0 0 0.3850000000000003,0.772 c0.04600000000000005,0.06300000000000006 0.08400000000000007,0.126 0.132,0.1890000000000001 s0.09300000000000011,0.128 0.1450000000000001,0.19200000000000014 l0.16000000000000014,0.19300000000000014 l0.171,0.2 c0.4760000000000002,0.523 1.072,1.063 1.6910000000000007,1.637 l0.4730000000000002,0.4380000000000002 c0.1570000000000001,0.1500000000000001 0.3190000000000003,0.3000000000000002 0.4780000000000002,0.454 s0.3210000000000003,0.3110000000000002 0.4790000000000002,0.4740000000000002 L52.137,52.800002861022946 c0.05200000000000004,0.05400000000000005 0.1,0.10800000000000005 0.1540000000000001,0.16700000000000018 c0.1,0.11300000000000006 0.2,0.23800000000000004 0.2920000000000002,0.3640000000000002 l0.136,0.2 c0.04400000000000004,0.06700000000000007 0.08700000000000008,0.138 0.128,0.2070000000000001 a4.626,4.626 0 0 1 0.22400000000000014,0.4450000000000003 a3.954,3.954 0 0 1 0.2850000000000002,0.979 a3.77,3.77 0 0 1 0.018000000000000013,1 a4.01,4.01 0 0 1 -0.2180000000000001,0.914 a4.821,4.821 0 0 1 -0.8440000000000004,1.4420000000000002 a6.519,6.519 0 0 1 -1.1,1.035 a7.744,7.744 0 0 1 -1.232,0.7520000000000004 A6.386,6.386 0 0 1 48.63900000000001,60.800002861022946 zM56.869,28.50000286102295 c-0.33800000000000036,0.27 -0.6620000000000007,0.545 -0.973,0.8290000000000004 s-0.6120000000000004,0.5740000000000004 -0.9,0.8700000000000004 a11.342,11.342 0 0 0 -1.48,1.8730000000000002 a5.551,5.551 0 0 0 -0.79,1.978 a3.7,3.7 0 0 0 0.16600000000000015,1.8650000000000002 c0.024000000000000014,0.07400000000000002 0.05700000000000003,0.1480000000000001 0.08400000000000007,0.22200000000000014 s0.06200000000000005,0.1470000000000001 0.1,0.2200000000000001 s0.06900000000000008,0.1460000000000001 0.11000000000000006,0.2180000000000001 l0.05800000000000004,0.10800000000000005 l0.06600000000000006,0.11200000000000006 a7.845,7.845 0 0 0 0.5910000000000004,0.8720000000000004 a13.8,13.8 0 0 0 1.53,1.6300000000000003 c1.143,1.057 2.473,2.067 3.781,3.259 a19.172,19.172 0 0 1 1.9,1.972 a12.308,12.308 0 0 1 0.8480000000000004,1.162 a10.043,10.043 0 0 1 0.7080000000000004,1.3 a8.833,8.833 0 0 1 0.7610000000000005,2.883 a9.152,9.152 0 0 1 0.007000000000000008,1.465 c-0.009000000000000011,0.12000000000000002 -0.018000000000000013,0.2410000000000001 -0.03300000000000003,0.3590000000000002 s-0.02500000000000002,0.23800000000000004 -0.04600000000000005,0.3550000000000002 s-0.03600000000000001,0.23800000000000004 -0.05800000000000004,0.34800000000000036 s-0.04100000000000003,0.22200000000000014 -0.06400000000000006,0.33300000000000035 a13.982,13.982 0 0 1 -0.8,2.6 A11.363,11.363 0 0 1 61.099999999999994,57.70600286102295 a9.391,9.391 0 0 1 -1.9,1.92 a7.831,7.831 0 0 1 -1.131,0.7090000000000004 c-0.2,0.1 -0.4,0.19300000000000014 -0.6000000000000004,0.271 a4.056,4.056 0 0 1 -0.6270000000000004,0.19300000000000014 a7.256,7.256 0 0 0 0.929,-0.8560000000000004 a9.669,9.669 0 0 0 0.775,-0.9520000000000004 a10.583,10.583 0 0 0 0.6380000000000005,-1.017 a11.439,11.439 0 0 0 0.509,-1.065 a13.505,13.505 0 0 0 0.9570000000000004,-4.517 c0.006000000000000008,-0.1 0.008000000000000007,-0.19300000000000014 0.012000000000000007,-0.2890000000000002 s0,-0.1840000000000001 0,-0.276 s0,-0.1810000000000001 0,-0.271 s-0.007000000000000008,-0.1790000000000001 -0.012000000000000007,-0.268 A7.355,7.355 0 0 0 60.5,50.25200286102295 a6.77,6.77 0 0 0 -0.7000000000000004,-1.9 a8.74,8.74 0 0 0 -0.559,-0.8780000000000004 c-0.2090000000000001,-0.2860000000000002 -0.4340000000000002,-0.5690000000000004 -0.6790000000000007,-0.8450000000000004 A21.252,21.252 0 0 0 56.920000000000016,45.00000286102295 c-1.184,-1.08 -2.52,-2.1550000000000002 -3.771,-3.476 c-0.3120000000000002,-0.3310000000000003 -0.6180000000000004,-0.6780000000000007 -0.909,-1.046 a11.957,11.957 0 0 1 -0.8230000000000004,-1.169 a9.576,9.576 0 0 1 -0.6730000000000007,-1.3 l-0.07100000000000002,-0.17200000000000001 l-0.06700000000000007,-0.1800000000000001 c-0.04600000000000005,-0.11900000000000008 -0.08400000000000007,-0.2430000000000001 -0.12300000000000005,-0.3650000000000002 s-0.07100000000000002,-0.25 -0.1,-0.3750000000000002 s-0.05900000000000004,-0.254 -0.08000000000000006,-0.3840000000000003 l-0.03200000000000003,-0.19400000000000014 c-0.010000000000000007,-0.06500000000000006 -0.017000000000000015,-0.131 -0.02500000000000002,-0.2 c-0.018000000000000013,-0.13 -0.02500000000000002,-0.263 -0.03300000000000003,-0.39500000000000035 a5.921,5.921 0 0 1 0.018000000000000013,-0.793 a5.446,5.446 0 0 1 0.128,-0.777 c0.028000000000000014,-0.127 0.06600000000000006,-0.252 0.1,-0.3760000000000002 s0.08100000000000006,-0.2450000000000001 0.129,-0.3640000000000002 s0.1,-0.23600000000000004 0.1480000000000001,-0.3510000000000002 s0.11000000000000006,-0.22700000000000015 0.171,-0.33600000000000035 a6,6 0 0 1 0.3890000000000003,-0.6280000000000004 a7.38,7.38 0 0 1 0.929,-1.081 a9.885,9.885 0 0 1 2.2,-1.578 a11.546,11.546 0 0 1 1.2,-0.557 A9.1,9.1 0 0 1 56.869,28.50000286102295 zm6.977,17.22 l0.534,-1.245 c0.171,-0.4 0.33200000000000035,-0.8 0.4790000000000002,-1.187 A11.4,11.4 0 0 0 65.5,41.06600286102295 A4.67,4.67 0 0 0 65.55000000000001,40.10000286102295 A3.085,3.085 0 0 0 65.5,39.68900286102295 c-0.013000000000000012,-0.06300000000000006 -0.02900000000000002,-0.132 -0.04500000000000004,-0.19500000000000015 s-0.03600000000000001,-0.12400000000000005 -0.05700000000000003,-0.1830000000000001 a2.181,2.181 0 0 0 -0.1470000000000001,-0.33300000000000035 a2.342,2.342 0 0 0 -0.2,-0.3120000000000002 a4.354,4.354 0 0 0 -0.5930000000000004,-0.6480000000000006 c-0.2460000000000001,-0.22800000000000015 -0.54,-0.465 -0.8650000000000004,-0.7250000000000004 c-0.16200000000000014,-0.131 -0.33500000000000035,-0.266 -0.511,-0.4130000000000002 s-0.3610000000000002,-0.3000000000000002 -0.546,-0.4750000000000002 a7.3,7.3 0 0 1 -0.5640000000000004,-0.5750000000000004 a5.181,5.181 0 0 1 -0.537,-0.7270000000000004 a3.968,3.968 0 0 1 -0.4,-0.907 a3.653,3.653 0 0 1 -0.11000000000000006,-0.5 a3.533,3.533 0 0 1 -0.035,-0.5 a3.585,3.585 0 0 1 0.12300000000000005,-0.926 a4.205,4.205 0 0 1 0.3000000000000002,-0.788 a5.738,5.738 0 0 1 0.8540000000000004,-1.246 A8.215,8.215 0 0 1 64.363,28.50000286102295 c-0.126,0.451 -0.272,0.8750000000000004 -0.4,1.294 s-0.256,0.8250000000000004 -0.3550000000000002,1.218 a6.259,6.259 0 0 0 -0.19100000000000014,1.113 a1.8940000000000001,1.8940000000000001 0 0 0 0.1,0.8280000000000004 a1.385,1.385 0 0 0 0.3590000000000002,0.4810000000000002 a5.9,5.9 0 0 0 0.7070000000000004,0.553 l0.4810000000000002,0.3240000000000003 c0.17200000000000001,0.11200000000000006 0.3500000000000002,0.234 0.536,0.3620000000000002 a11.041,11.041 0 0 1 1.1600000000000001,0.906 a7.13,7.13 0 0 1 0.5790000000000004,0.5920000000000004 a5.868,5.868 0 0 1 0.527,0.7120000000000004 a5.257,5.257 0 0 1 0.4170000000000002,0.8250000000000004 a5.019,5.019 0 0 1 0.256,0.8920000000000005 a5.031,5.031 0 0 1 0.009000000000000011,1.771 a5.776,5.776 0 0 1 -0.508,1.55 a7.032,7.032 0 0 1 -0.809,1.276 a8.192,8.192 0 0 1 -0.993,1.046 a8.712,8.712 0 0 1 -1.129,0.8470000000000004 A6.49,6.49 0 0 1 63.846000000000004,45.72000286102295 z" id="svg_1" fill="#ffffff" fill-opacity="1"/></g></svg>