<svg xmlns="http://www.w3.org/2000/svg" width="116" height="116"><rect id="backgroundrect" width="100%" height="100%" x="0" y="0" fill="none" stroke="none"/>
  <defs>
    <style>
      .cls-1 {
        fill: #e9380e;
        fill-rule: evenodd;
      }
    </style>
  </defs>
  
<g class="currentLayer" style=""><title>Layer 1</title><rect fill="#ffffff" stroke-dashoffset="" fill-rule="nonzero" id="svg_6" x="0" y="0" width="117" height="116" style="color: rgb(0, 0, 0);" class=""/><path class="cls-1" d="M81.8536927947998,64.02738725280761 A15.272,15.272 0 0 0 71.14469279479981,56.74638725280761 A14.786,14.786 0 0 0 59.22769279479981,60.423387252807615 c-3.095,2.745 -8.552,8.273 -13.383000000000001,13.272 c-1.154,-3.6870000000000003 -0.2190000000000001,-7.882 2.7880000000000003,-12.5 a37.391,37.391 0 0 1 2.322,-3.16 a0.279,0.279 0 0 0 0.3630000000000002,-0.03700000000000001 l5.991,-6.29 L57.3276927947998,51.73638725280762 l0.8680000000000004,-0.523 c2.771,-1.6 3.457,-0.8160000000000004 6.014,-3.43 S65.5276927947998,45.170387252807615 67.0756927947998,42.720387252807626 s2.428,-3.9 4.341,-4.181 a1.969,1.969 0 0 0 1.9300000000000002,-2.058 a4.081,4.081 0 0 1 0.772,-1.7640000000000002 a4.483,4.483 0 0 1 2.6,-1.437 a1.445,1.445 0 0 0 1.254,-1.437 a3.771,3.771 0 0 1 0.5790000000000004,-1.5 a6.593,6.593 0 0 1 2.8,-2.417 c1.367,-0.6530000000000006 1.029,-1.6500000000000008 0.4820000000000002,-2.123 s-1.371,-0.5 -2.09,0.9470000000000004 c-1.415,2.842 -3.071,2.989 -3.891,3.169 A1.3840000000000001,1.3840000000000001 0 0 0 74.6976927947998,31.08638725280762 a3.606,3.606 0 0 1 -1.576,2.809 c-1.029,0.8820000000000005 -2.058,0.13 -3.055,1.307 s-0.16100000000000014,1.731 -1.286,3.1 a19.368,19.368 0 0 1 -5.531,3.6260000000000003 c-0.8520000000000004,0.2940000000000002 -3.7,2.107 -4.373,3.822 c-0.556,1.411 -1.743,3.862 -2.146,4.686 L50.39769279479981,57.09338725280762 a0.2910000000000002,0.2910000000000002 0 0 0 0.006000000000000008,0.4070000000000002 l0.04100000000000003,0.04100000000000003 a38.2,38.2 0 0 0 -2.4,3.26 a20.945,20.945 0 0 0 -3.121,7.1 a11.81,11.81 0 0 0 0.3670000000000002,6.373 c-4.354,4.514 -8.092,8.481 -8.955,9.4 l-0.3870000000000003,-0.3690000000000002 a0.19200000000000014,0.19200000000000014 0 0 0 -0.2860000000000002,0.021000000000000015 L31.573692794799797,88.58638725280761 a0.265,0.265 0 0 0 -0.010000000000000007,0.3100000000000002 l0.14300000000000004,0.2120000000000001 a0.3000000000000002,0.3000000000000002 0 0 0 0.4430000000000002,0.06300000000000006 l5.118,-4.309 a0.2,0.2 0 0 0 0.009000000000000011,-0.3000000000000002 l-0.4230000000000002,-0.4 c0.8530000000000004,-0.907 4.475,-4.751 8.725,-9.16 q0.07600000000000005,0.1760000000000001 0.1580000000000001,0.3500000000000002 c3.7,7.869 8.526,12.73 14.359,14.449 A16.8,16.8 0 0 0 64.8606927947998,90.48638725280762 a21.971,21.971 0 0 0 11.385,-3.515 A17.753,17.753 0 0 0 84.1376927947998,76.01538725280761 A15.761,15.761 0 0 0 81.8536927947998,64.02738725280761 zm1.593,11.832 a17.031,17.031 0 0 1 -7.578,10.5 c-2.366,1.51 -8.620000000000001,4.8 -15.578,2.7520000000000002 c-5.63,-1.6590000000000007 -10.312,-6.392 -13.917,-14.068 q-0.139,-0.3000000000000002 -0.259,-0.6000000000000004 c4.878,-5.052 10.45,-10.7 13.582,-13.481 a14.088,14.088 0 0 1 11.348,-3.507 a14.575,14.575 0 0 1 10.213,6.958 A15.048,15.048 0 0 1 83.4466927947998,75.85938725280762 z"/></g></svg>