<svg xmlns="http://www.w3.org/2000/svg" width="116" height="116" viewBox="0 0 116 116">
  <defs>
    <style>
      .cls-1 {
        fill: #e9380e;
        fill-rule: evenodd;
      }
    </style>
  </defs>
  <path class="cls-1" d="M81.326,64.541A15.272,15.272,0,0,0,70.617,57.26,14.786,14.786,0,0,0,58.7,60.937c-3.095,2.745-8.552,8.273-13.383,13.272-1.154-3.687-.219-7.882,2.788-12.5a37.391,37.391,0,0,1,2.322-3.16,0.279,0.279,0,0,0,.363-0.037l5.991-6.29L56.8,52.25l0.868-.523c2.771-1.6,3.457-.816,6.014-3.43S65,45.684,66.548,43.234s2.428-3.9,4.341-4.181a1.969,1.969,0,0,0,1.93-2.058,4.081,4.081,0,0,1,.772-1.764,4.483,4.483,0,0,1,2.6-1.437,1.445,1.445,0,0,0,1.254-1.437,3.771,3.771,0,0,1,.579-1.5,6.593,6.593,0,0,1,2.8-2.417c1.367-.653,1.029-1.65.482-2.123s-1.371-.5-2.09.947c-1.415,2.842-3.071,2.989-3.891,3.169A1.384,1.384,0,0,0,74.17,31.6a3.606,3.606,0,0,1-1.576,2.809c-1.029.882-2.058,0.13-3.055,1.307s-0.161,1.731-1.286,3.1a19.368,19.368,0,0,1-5.531,3.626c-0.852.294-3.7,2.107-4.373,3.822-0.556,1.411-1.743,3.862-2.146,4.686L49.87,57.607a0.291,0.291,0,0,0,.006.407l0.041,0.041a38.2,38.2,0,0,0-2.4,3.26,20.945,20.945,0,0,0-3.121,7.1,11.81,11.81,0,0,0,.367,6.373c-4.354,4.514-8.092,8.481-8.955,9.4l-0.387-.369a0.192,0.192,0,0,0-.286.021L31.046,89.1a0.265,0.265,0,0,0-.01.31l0.143,0.212a0.3,0.3,0,0,0,.443.063l5.118-4.309a0.2,0.2,0,0,0,.009-0.3l-0.423-.4c0.853-.907,4.475-4.751,8.725-9.16q0.076,0.176.158,0.35c3.7,7.869,8.526,12.73,14.359,14.449A16.8,16.8,0,0,0,64.333,91a21.971,21.971,0,0,0,11.385-3.515A17.753,17.753,0,0,0,83.61,76.529,15.761,15.761,0,0,0,81.326,64.541Zm1.593,11.832a17.031,17.031,0,0,1-7.578,10.5c-2.366,1.51-8.62,4.8-15.578,2.752-5.63-1.659-10.312-6.392-13.917-14.068q-0.139-.3-0.259-0.6c4.878-5.052,10.45-10.7,13.582-13.481a14.088,14.088,0,0,1,11.348-3.507,14.575,14.575,0,0,1,10.213,6.958A15.048,15.048,0,0,1,82.919,76.373Z"/>
</svg>
