<svg xmlns="http://www.w3.org/2000/svg" width="116" height="116" style=""><rect id="backgroundrect" width="100%" height="100%" x="0" y="0" fill="none" stroke="none"/>
  <defs>
    <style>
      .cls-1 {
        fill: #e9380e;
        fill-rule: evenodd;
      }
    </style>
  </defs>
  
<g class="currentLayer" style=""><title>Layer 1</title><rect fill="#ffffff" stroke-dashoffset="" fill-rule="nonzero" id="svg_7" x="0" y="0" width="116" height="116" style="color: rgb(0, 0, 0);" class=""/><path class="cls-1" d="M70.36606207466126,82.40695054626465 l-0.1,-0.18200000000000013 a4.064,4.064 0 0 0 -1.924,-1.6510000000000002 c-0.6570000000000008,-0.30000000000000027 -1.343,-0.5710000000000005 -2.009,-0.8650000000000005 a5.769,5.769 0 0 1 -0.6260000000000006,-0.3380000000000004 c-0.42300000000000026,-0.252 -0.8420000000000005,-0.51 -1.258,-0.7680000000000007 a5.713,5.713 0 0 1 -0.7650000000000007,-0.49100000000000027 a7.1,7.1 0 0 1 -2.632,-5.366 c-0.015000000000000015,-0.928 -0.0690000000000001,-1.859 0,-2.784 c0.07800000000000007,-1.12 0.268,-2.234 0.4,-3.352 c0.03700000000000001,-0.3140000000000003 0.04400000000000005,-0.6300000000000006 0.06800000000000009,-0.9450000000000005 c0.048000000000000036,-0.6490000000000007 0.05100000000000005,-1.3 0.16200000000000017,-1.945 a10.141,10.141 0 0 1 0.462,-1.34 a1.5,1.5 0 0 0 0.09100000000000014,-0.562 a0.9490000000000005,0.9490000000000005 0 0 1 0.16700000000000023,-0.7250000000000005 l-0.8810000000000006,-0.6330000000000007 L61.285062074661255,60.44795054626465 c-0.6380000000000007,0.28 -0.8210000000000005,0.23 -0.8810000000000006,-0.30000000000000027 c-0.07200000000000002,-0.6250000000000006 -0.09500000000000014,-1.254 -0.15200000000000014,-1.8800000000000003 a1.361,1.361 0 0 0 -0.127,-0.6330000000000007 a1.778,1.778 0 0 1 -0.053000000000000054,-1.917 a1.2,1.2 0 0 0 0.008000000000000009,-0.6260000000000006 c-0.04600000000000006,-0.527 -0.128,-1.054 -0.15400000000000014,-1.582 a3.746,3.746 0 0 1 0.6630000000000008,-2.05 a1.1,1.1 0 0 0 0.14200000000000004,-0.6250000000000006 c-0.09200000000000014,-1.21 -0.2,-2.418 -0.32400000000000034,-3.6260000000000003 c-0.128,-1.3 -0.274,-2.5940000000000003 -0.405,-3.891 c-0.07300000000000002,-0.7280000000000005 -0.1170000000000001,-1.457 -0.2,-2.184 a8.45,8.45 0 0 1 -0.22100000000000014,-1.6380000000000003 c0.05800000000000005,-0.6550000000000007 -0.30000000000000027,-1.318 0.126,-1.972 a2.242,2.242 0 0 0 0.16900000000000023,-0.8640000000000005 c1.024,-0.14 2.04,-0.253 3.041,-0.42100000000000026 A14.587,14.587 0 0 0 66.98506207466126,34.97795054626465 c0.4330000000000003,-0.21500000000000014 0.9,-0.3940000000000004 1.314,-0.6260000000000006 a1.8690000000000002,1.8690000000000002 0 0 0 1.1560000000000001,-1.709 a1.842,1.842 0 0 0 -0.9470000000000005,-1.372 a8.089,8.089 0 0 0 -2.466,-1.089 a20.625,20.625 0 0 0 -3.668,-0.7100000000000005 c-0.277,-0.029000000000000026 -0.547,-0.0880000000000001 -0.8870000000000007,-0.14400000000000004 l0.29400000000000026,-0.38700000000000034 a3.611,3.611 0 0 0 0.8190000000000005,-2.07 a1.267,1.267 0 0 0 -0.921,-1.268 a7.792,7.792 0 0 0 -1.44,-0.41400000000000026 a10.882,10.882 0 0 0 -4.009,0 A7.8,7.8 0 0 0 54.785062074661255,25.60095054626464 a1.266,1.266 0 0 0 -0.921,1.268 a3.6100000000000003,3.6100000000000003 0 0 0 0.8190000000000005,2.07 L54.97906207466126,29.330950546264646 c-0.3400000000000004,0.05700000000000004 -0.6100000000000005,0.1160000000000001 -0.8860000000000007,0.14500000000000013 a20.626,20.626 0 0 0 -3.668,0.7100000000000005 a8.087,8.087 0 0 0 -2.466,1.089 a1.843,1.843 0 0 0 -0.9480000000000005,1.372 a1.8690000000000002,1.8690000000000002 0 0 0 1.155,1.711 c0.41600000000000026,0.231 0.8810000000000006,0.41100000000000025 1.314,0.6250000000000006 a14.587,14.587 0 0 0 4.066,1.266 c1,0.16900000000000023 2.017,0.281 3.041,0.42100000000000026 a2.237,2.237 0 0 0 0.16900000000000023,0.8640000000000005 c0.42300000000000026,0.6530000000000007 0.06800000000000009,1.3170000000000002 0.126,1.972 a8.451,8.451 0 0 1 -0.22100000000000014,1.6380000000000003 c-0.08200000000000009,0.7270000000000005 -0.126,1.456 -0.2,2.184 c-0.13,1.3 -0.277,2.593 -0.405,3.89 c-0.1190000000000001,1.208 -0.231,2.417 -0.32400000000000034,3.6260000000000003 a1.1,1.1 0 0 0 0.14200000000000004,0.6250000000000006 a3.746,3.746 0 0 1 0.6630000000000008,2.051 c-0.026000000000000034,0.528 -0.10900000000000007,1.054 -0.15400000000000014,1.582 a1.193,1.193 0 0 0 0.008000000000000009,0.6250000000000006 a1.778,1.778 0 0 1 -0.053000000000000054,1.917 a1.362,1.362 0 0 0 -0.127,0.6330000000000007 c-0.056000000000000036,0.6260000000000006 -0.07900000000000007,1.255 -0.15100000000000013,1.8800000000000003 c-0.061000000000000054,0.526 -0.24300000000000013,0.5770000000000005 -0.8810000000000006,0.30000000000000027 l-0.234,0.012000000000000009 l-0.8800000000000006,0.6330000000000007 a0.9470000000000005,0.9470000000000005 0 0 1 0.1660000000000002,0.7250000000000005 a1.5,1.5 0 0 0 0.09100000000000014,0.561 A10.16,10.16 0 0 1 54.785062074661255,63.720950546264646 c0.11100000000000007,0.6420000000000007 0.11400000000000009,1.3 0.16200000000000017,1.945 c0.023000000000000034,0.3150000000000003 0.030000000000000034,0.6310000000000006 0.06800000000000009,0.9450000000000005 c0.133,1.117 0.32300000000000034,2.232 0.4,3.352 c0.06500000000000007,0.925 0.011000000000000015,1.856 0,2.784 A7.1,7.1 0 0 1 52.785062074661255,78.11295054626464 a5.687,5.687 0 0 1 -0.7650000000000007,0.49100000000000027 c-0.41700000000000026,0.258 -0.8350000000000005,0.516 -1.258,0.7680000000000007 a5.829,5.829 0 0 1 -0.6260000000000006,0.3380000000000004 c-0.6660000000000008,0.29300000000000026 -1.352,0.561 -2.009,0.8650000000000005 a4.064,4.064 0 0 0 -1.924,1.6510000000000002 l-0.1,0.18200000000000013 a7.044,7.044 0 0 0 -0.2290000000000002,2.031 a11.318,11.318 0 0 0 0.8360000000000005,2.915 a6.8,6.8 0 0 0 1.428,2.2 l0.258,0.09100000000000014 a26.366,26.366 0 0 0 7.6690000000000005,1.232 a4.5,4.5 0 0 1 0.541,0.020000000000000018 a13.3,13.3 0 0 0 3.261,0 a4.505,4.505 0 0 1 0.541,-0.020000000000000018 a26.364,26.364 0 0 0 7.6690000000000005,-1.232 l0.258,-0.09100000000000014 a6.806,6.806 0 0 0 1.429,-2.2 a11.326,11.326 0 0 0 0.8360000000000005,-2.915 A7.046,7.046 0 0 0 70.36606207466126,82.40695054626465 zM52.690062074661256,59.54695054626464 l2.6500000000000004,2.2 l-0.3740000000000003,0.6100000000000005 l-3.149,-1.206 zM70.07106207466126,77.69795054626465 A14.4,14.4 0 0 1 64.18506207466126,76.25195054626465 a23.273,23.273 0 0 0 -15.673,-2 a13.847,13.847 0 0 0 -5.421,2.64 l-0.7320000000000005,-0.7240000000000005 a14.582,14.582 0 0 1 5.809,-2.8680000000000003 a24.3,24.3 0 0 1 16.467,2.042 c5.831,2.638 9.323,0.9470000000000005 10.543,-1.3 a5.057,5.057 0 0 0 -2.54,-6.852 a28.607,28.607 0 0 0 -15.15,-1.308 a62.48,62.48 0 0 1 -16.575,-0.3430000000000004 A6.043,6.043 0 0 1 36.18506207466126,62.057950546264635 a4.409,4.409 0 0 1 0.554,-4.235 c2.266,-2.6740000000000004 5.593,-2.77 10.472,-0.30000000000000027 c5.213,2.637 6.305,3.12 6.316,3.125 L53.08506207466125,61.56095054626465 c-0.04200000000000004,-0.019000000000000017 -1.1,-0.48500000000000026 -6.37,-3.15 c-5.658,-2.861 -7.867,-1.478 -9.159,0.047000000000000035 a3.433,3.433 0 0 0 -0.38200000000000034,3.26 a4.773,4.773 0 0 0 3.9530000000000003,2.832 a61.58,61.58 0 0 0 16.285,0.32500000000000034 a29.273,29.273 0 0 1 15.746,1.435 a5.865,5.865 0 0 1 3.1,7.909 a6.3,6.3 0 0 1 -6.189,3.479 h0 zM43.279062074661255,74.25395054626466 l0.9630000000000005,-0.5830000000000005 l1.509,2.276 L44.785062074661255,76.53095054626465 zM44.07006207466125,74.43095054626465 a13.271,13.271 0 0 0 -3.591,1.494 c-1.8250000000000002,1.1 -5.753,4.5 -7.053,5.218 S31.785062074661255,81.66195054626465 31.785062074661255,81.66195054626465 L32.48506207466126,82.73095054626464 L44.68506207466126,75.34895054626463 zm0.8900000000000007,1.342 A12.8,12.8 0 0 1 42.01206207466126,78.23095054626464 c-1.8250000000000002,1.1 -6.7170000000000005,3.047 -7.952,3.862 s-1.2,1.2 -1.2,1.2 L32.15906207466125,82.23095054626464 L44.35006207466125,74.85095054626464 z"  fill="#ffffff" fill-opacity="1"/></g></svg>