<svg xmlns="http://www.w3.org/2000/svg" width="116" height="116" viewBox="0 0 116 116">
  <defs>
    <style>
      .cls-1 {
        fill: #e9380e;
        fill-rule: evenodd;
      }
    </style>
  </defs>
  <path class="cls-1" d="M71.581,82.376l-0.1-.182a4.064,4.064,0,0,0-1.924-1.651c-0.657-.3-1.343-0.571-2.009-0.865a5.769,5.769,0,0,1-.626-0.338c-0.423-.252-0.842-0.51-1.258-0.768a5.713,5.713,0,0,1-.765-0.491,7.1,7.1,0,0,1-2.632-5.366c-0.015-.928-0.069-1.859,0-2.784,0.078-1.12.268-2.234,0.4-3.352,0.037-.314.044-0.63,0.068-0.945,0.048-.649.051-1.3,0.162-1.945a10.141,10.141,0,0,1,.462-1.34,1.5,1.5,0,0,0,.091-0.562,0.949,0.949,0,0,1,.167-0.725l-0.881-.633L62.5,60.417c-0.638.28-.821,0.23-0.881-0.3-0.072-.625-0.095-1.254-0.152-1.88a1.361,1.361,0,0,0-.127-0.633,1.778,1.778,0,0,1-.053-1.917,1.2,1.2,0,0,0,.008-0.626c-0.046-.527-0.128-1.054-0.154-1.582a3.746,3.746,0,0,1,.663-2.05,1.1,1.1,0,0,0,.142-0.625c-0.092-1.21-.2-2.418-0.324-3.626-0.128-1.3-.274-2.594-0.405-3.891-0.073-.728-0.117-1.457-0.2-2.184a8.45,8.45,0,0,1-.221-1.638c0.058-.655-0.3-1.318.126-1.972a2.242,2.242,0,0,0,.169-0.864c1.024-.14,2.04-0.253,3.041-0.421A14.587,14.587,0,0,0,68.2,34.947c0.433-.215.9-0.394,1.314-0.626a1.869,1.869,0,0,0,1.156-1.709,1.842,1.842,0,0,0-.947-1.372,8.089,8.089,0,0,0-2.466-1.089,20.625,20.625,0,0,0-3.668-.71c-0.277-.029-0.547-0.088-0.887-0.144l0.294-.387a3.611,3.611,0,0,0,.819-2.07,1.267,1.267,0,0,0-.921-1.268,7.792,7.792,0,0,0-1.44-.414,10.882,10.882,0,0,0-4.009,0A7.8,7.8,0,0,0,56,25.57a1.266,1.266,0,0,0-.921,1.268,3.61,3.61,0,0,0,.819,2.07L56.194,29.3c-0.34.057-.61,0.116-0.886,0.145a20.626,20.626,0,0,0-3.668.71,8.087,8.087,0,0,0-2.466,1.089,1.843,1.843,0,0,0-.948,1.372,1.869,1.869,0,0,0,1.155,1.711c0.416,0.231.881,0.411,1.314,0.625a14.587,14.587,0,0,0,4.066,1.266c1,0.169,2.017.281,3.041,0.421a2.237,2.237,0,0,0,.169.864c0.423,0.653.068,1.317,0.126,1.972a8.451,8.451,0,0,1-.221,1.638c-0.082.727-.126,1.456-0.2,2.184-0.13,1.3-.277,2.593-0.405,3.89-0.119,1.208-.231,2.417-0.324,3.626a1.1,1.1,0,0,0,.142.625,3.746,3.746,0,0,1,.663,2.051c-0.026.528-.109,1.054-0.154,1.582a1.193,1.193,0,0,0,.008.625,1.778,1.778,0,0,1-.053,1.917,1.362,1.362,0,0,0-.127.633c-0.056.626-.079,1.255-0.151,1.88-0.061.526-.243,0.577-0.881,0.3l-0.234.012-0.88.633a0.947,0.947,0,0,1,.166.725,1.5,1.5,0,0,0,.091.561A10.16,10.16,0,0,1,56,63.69c0.111,0.642.114,1.3,0.162,1.945,0.023,0.315.03,0.631,0.068,0.945,0.133,1.117.323,2.232,0.4,3.352,0.065,0.925.011,1.856,0,2.784A7.1,7.1,0,0,1,54,78.082a5.687,5.687,0,0,1-.765.491c-0.417.258-.835,0.516-1.258,0.768a5.829,5.829,0,0,1-.626.338c-0.666.293-1.352,0.561-2.009,0.865a4.064,4.064,0,0,0-1.924,1.651l-0.1.182a7.044,7.044,0,0,0-.229,2.031,11.318,11.318,0,0,0,.836,2.915,6.8,6.8,0,0,0,1.428,2.2l0.258,0.091a26.366,26.366,0,0,0,7.669,1.232,4.5,4.5,0,0,1,.541.02,13.3,13.3,0,0,0,3.261,0,4.505,4.505,0,0,1,.541-0.02,26.364,26.364,0,0,0,7.669-1.232l0.258-.091a6.806,6.806,0,0,0,1.429-2.2,11.326,11.326,0,0,0,.836-2.915A7.046,7.046,0,0,0,71.581,82.376ZM53.905,59.516l2.65,2.2-0.374.61-3.149-1.206ZM71.286,77.667A14.4,14.4,0,0,1,65.4,76.221a23.273,23.273,0,0,0-15.673-2,13.847,13.847,0,0,0-5.421,2.64l-0.732-.724a14.582,14.582,0,0,1,5.809-2.868,24.3,24.3,0,0,1,16.467,2.042c5.831,2.638,9.323.947,10.543-1.3a5.057,5.057,0,0,0-2.54-6.852,28.607,28.607,0,0,0-15.15-1.308,62.48,62.48,0,0,1-16.575-.343A6.043,6.043,0,0,1,37.4,62.027a4.409,4.409,0,0,1,.554-4.235c2.266-2.674,5.593-2.77,10.472-.3,5.213,2.637,6.305,3.12,6.316,3.125L54.3,61.53c-0.042-.019-1.1-0.485-6.37-3.15-5.658-2.861-7.867-1.478-9.159.047a3.433,3.433,0,0,0-.382,3.26,4.773,4.773,0,0,0,3.953,2.832,61.58,61.58,0,0,0,16.285.325,29.273,29.273,0,0,1,15.746,1.435,5.865,5.865,0,0,1,3.1,7.909,6.3,6.3,0,0,1-6.189,3.479h0ZM44.494,74.223l0.963-.583,1.509,2.276L46,76.5ZM45.285,74.4a13.271,13.271,0,0,0-3.591,1.494c-1.825,1.1-5.753,4.5-7.053,5.218S33,81.631,33,81.631L33.7,82.7,45.9,75.318Zm0.89,1.342A12.8,12.8,0,0,1,43.227,78.2c-1.825,1.1-6.717,3.047-7.952,3.862s-1.2,1.2-1.2,1.2L33.374,82.2,45.565,74.82Z"/>
</svg>
