<svg xmlns="http://www.w3.org/2000/svg" width="116" height="116" viewBox="-10 -10 66 66">
  <defs>
    <style>
      .cls-1 {
        fill: #e9380e;
        fill-rule: evenodd;
      }
    </style>
  </defs>
  <path class="cls-1" d="M762.025,1117.07v-7.92a0.961,0.961,0,0,0-.962-0.96h-7.937a0.975,0.975,0,0,1-.681-0.29l-5.612-5.6a0.955,0.955,0,0,0-1.361,0l-5.612,5.6a0.971,0.971,0,0,1-.681.29h-7.936a0.962,0.962,0,0,0-.963.96v7.92a0.95,0.95,0,0,1-.282.68l-5.611,5.61a0.961,0.961,0,0,0,0,1.36l5.611,5.6a0.967,0.967,0,0,1,.282.68v7.93a0.962,0.962,0,0,0,.963.96h7.936a0.962,0.962,0,0,1,.681.28l5.612,5.61a0.955,0.955,0,0,0,1.361,0l5.612-5.61a0.965,0.965,0,0,1,.681-0.28h7.937a0.961,0.961,0,0,0,.962-0.96V1131a0.972,0.972,0,0,1,.282-0.68l5.612-5.6a0.961,0.961,0,0,0,0-1.36l-5.612-5.61A0.954,0.954,0,0,1,762.025,1117.07Zm-12.38,10.77c-5.257,3.75-11.07-2.03-7.291-7.25a1.418,1.418,0,0,1,.3-0.31c5.257-3.76,11.07,2.03,7.29,7.25A1.437,1.437,0,0,1,749.645,1127.84Z" transform="translate(-724.094 -1102.03)"/>
</svg>
