<svg xmlns="http://www.w3.org/2000/svg" fill="#000000" width="66.09400177001953" height="66.02999877929688"><rect id="backgroundrect" width="100%" height="100%" x="-10" y="-10" fill="none" stroke="none"/> 
  <defs>
    <style>
      .cls-1 {
        fill: #e9380e;
        fill-rule: evenodd;
      }
    </style>
  </defs>
  
<g class="currentLayer" style=""><title>Layer 1</title><rect fill="#ffffff" stroke-dashoffset="" fill-rule="nonzero" id="svg_2" x="-3.222222089767456" y="0.7407407164573669" width="68" height="67" style="color: rgb(0, 0, 0);" class="selected"/><path class="cls-1" d="M47.560636901855446,26.891815490722593 v-7.92 a0.9610000000000003,0.9610000000000003 0 0 0 -0.9620000000000003,-0.9600000000000003 h-7.937 a0.975,0.975 0 0 1 -0.6810000000000006,-0.29000000000000015 l-5.612,-5.6 a0.9550000000000003,0.9550000000000003 0 0 0 -1.361,0 l-5.612,5.6 a0.971,0.971 0 0 1 -0.6810000000000006,0.29000000000000015 h-7.936 a0.9620000000000003,0.9620000000000003 0 0 0 -0.9630000000000003,0.9600000000000003 v7.92 a0.9500000000000003,0.9500000000000003 0 0 1 -0.28200000000000014,0.6800000000000006 l-5.611,5.61 a0.9610000000000003,0.9610000000000003 0 0 0 0,1.36 l5.611,5.6 a0.9670000000000003,0.9670000000000003 0 0 1 0.28200000000000014,0.6800000000000006 v7.93 a0.9620000000000003,0.9620000000000003 0 0 0 0.9630000000000003,0.9600000000000003 h7.936 a0.9620000000000003,0.9620000000000003 0 0 1 0.6810000000000006,0.28 l5.612,5.61 a0.9550000000000003,0.9550000000000003 0 0 0 1.361,0 l5.612,-5.61 a0.9650000000000003,0.9650000000000003 0 0 1 0.6810000000000006,-0.28 h7.937 a0.9610000000000003,0.9610000000000003 0 0 0 0.9620000000000003,-0.9600000000000003 V40.821815490722656 a0.972,0.972 0 0 1 0.28200000000000014,-0.6800000000000006 l5.612,-5.6 a0.9610000000000003,0.9610000000000003 0 0 0 0,-1.36 l-5.612,-5.61 A0.9540000000000003,0.9540000000000003 0 0 1 47.560636901855446,26.891815490722593 zm-12.38,10.77 c-5.257,3.75 -11.07,-2.03 -7.291,-7.25 a1.4180000000000001,1.4180000000000001 0 0 1 0.30000000000000016,-0.31000000000000016 c5.257,-3.7600000000000002 11.07,2.03 7.29,7.25 A1.437,1.437 0 0 1 35.18063690185545,37.661815490722574 z" id="svg_1"/></g></svg>
